<svg xmlns="http://www.w3.org/2000/svg" xmlns:xlink="http://www.w3.org/1999/xlink" width="500" zoomAndPan="magnify" viewBox="0 0 375 374.999991" height="500" preserveAspectRatio="xMidYMid meet" version="1.0"><defs><g/><clipPath id="80dc993ec1"><path d="M 77.613281 185.25 L 285.898438 185.25 L 285.898438 207.234375 L 77.613281 207.234375 Z M 77.613281 185.25 " clip-rule="nonzero"/></clipPath></defs><g fill="#ffffff" fill-opacity="1"><g transform="translate(21.866248, 223.441845)"><g><path d="M 46.3125 0 L 1.40625 0 L 1.40625 -0.5625 C 2.707031 -0.894531 3.640625 -1.675781 4.203125 -2.90625 C 4.765625 -4.144531 5.046875 -5.789062 5.046875 -7.84375 L 5.046875 -56 C 5.046875 -58.09375 4.765625 -59.742188 4.203125 -60.953125 C 3.640625 -62.171875 2.707031 -62.945312 1.40625 -63.28125 L 1.40625 -63.84375 L 46.3125 -63.84375 L 46.3125 -44.578125 L 45.75 -44.578125 C 45.75 -45.804688 45.441406 -47.203125 44.828125 -48.765625 C 44.210938 -50.335938 43.328125 -51.945312 42.171875 -53.59375 C 41.015625 -55.238281 39.648438 -56.738281 38.078125 -58.09375 C 36.515625 -59.457031 34.757812 -60.566406 32.8125 -61.421875 C 30.875 -62.285156 28.800781 -62.71875 26.59375 -62.71875 L 22.953125 -62.71875 L 22.953125 -34.65625 L 25.140625 -34.65625 C 26.523438 -34.65625 27.9375 -34.945312 29.375 -35.53125 C 30.8125 -36.113281 32.15625 -36.859375 33.40625 -37.765625 C 34.65625 -38.679688 35.695312 -39.695312 36.53125 -40.8125 C 37.375 -41.9375 37.890625 -43.023438 38.078125 -44.078125 L 38.640625 -44.078125 L 38.640625 -24.140625 L 38.078125 -24.140625 C 37.890625 -25.222656 37.375 -26.3125 36.53125 -27.40625 C 35.695312 -28.507812 34.65625 -29.519531 33.40625 -30.4375 C 32.15625 -31.351562 30.8125 -32.097656 29.375 -32.671875 C 27.9375 -33.253906 26.523438 -33.546875 25.140625 -33.546875 L 22.953125 -33.546875 L 22.953125 -1.125 L 26.59375 -1.125 C 28.800781 -1.125 30.875 -1.550781 32.8125 -2.40625 C 34.757812 -3.269531 36.515625 -4.378906 38.078125 -5.734375 C 39.648438 -7.097656 41.015625 -8.601562 42.171875 -10.25 C 43.328125 -11.894531 44.210938 -13.5 44.828125 -15.0625 C 45.441406 -16.632812 45.75 -18.035156 45.75 -19.265625 L 46.3125 -19.265625 Z M 46.3125 0 "/></g></g></g><g fill="#ffffff" fill-opacity="1"><g transform="translate(67.891581, 223.441845)"><g><path d="M 1.40625 -63.84375 L 26.59375 -63.84375 L 26.59375 -63.28125 C 25.289062 -62.945312 24.359375 -62.171875 23.796875 -60.953125 C 23.234375 -59.742188 22.953125 -58.09375 22.953125 -56 L 22.953125 -1.125 L 26.203125 -1.125 C 28.410156 -1.125 30.484375 -1.550781 32.421875 -2.40625 C 34.367188 -3.269531 36.125 -4.378906 37.6875 -5.734375 C 39.257812 -7.097656 40.625 -8.601562 41.78125 -10.25 C 42.9375 -11.894531 43.820312 -13.5 44.4375 -15.0625 C 45.050781 -16.632812 45.359375 -18.035156 45.359375 -19.265625 L 45.921875 -19.265625 L 45.921875 0 L 1.40625 0 L 1.40625 -0.5625 C 2.707031 -0.894531 3.640625 -1.675781 4.203125 -2.90625 C 4.765625 -4.144531 5.046875 -5.789062 5.046875 -7.84375 L 5.046875 -56 C 5.046875 -58.09375 4.765625 -59.742188 4.203125 -60.953125 C 3.640625 -62.171875 2.707031 -62.945312 1.40625 -63.28125 Z M 1.40625 -63.84375 "/></g></g></g><g fill="#ffffff" fill-opacity="1"><g transform="translate(113.524977, 223.441845)"><g><path d="M 0 -63.28125 L 0 -63.84375 L 28.5 -63.84375 L 28.5 -63.28125 C 27.226562 -62.90625 26.378906 -62.222656 25.953125 -61.234375 C 25.523438 -60.242188 25.410156 -59.039062 25.609375 -57.625 C 25.816406 -56.207031 26.253906 -54.640625 26.921875 -52.921875 C 27.597656 -51.203125 28.40625 -49.410156 29.34375 -47.546875 C 30.800781 -44.742188 32.050781 -42.34375 33.09375 -40.34375 C 34.132812 -38.351562 35.082031 -36.570312 35.9375 -35 C 36.800781 -33.425781 37.628906 -31.859375 38.421875 -30.296875 C 39.160156 -31.941406 40.015625 -33.804688 40.984375 -35.890625 C 41.960938 -37.984375 42.925781 -40.128906 43.875 -42.328125 C 44.820312 -44.535156 45.632812 -46.609375 46.3125 -48.546875 C 47.25 -51.160156 47.5 -53.585938 47.0625 -55.828125 C 46.632812 -58.066406 45.644531 -59.867188 44.09375 -61.234375 C 42.550781 -62.597656 40.566406 -63.28125 38.140625 -63.28125 L 38.140625 -63.84375 L 60.375 -63.84375 L 60.375 -63.28125 C 59.363281 -63.28125 58.363281 -62.835938 57.375 -61.953125 C 56.382812 -61.078125 55.394531 -59.910156 54.40625 -58.453125 C 53.414062 -57.003906 52.441406 -55.398438 51.484375 -53.640625 C 50.535156 -51.890625 49.613281 -50.117188 48.71875 -48.328125 C 47.601562 -46.128906 46.660156 -44.289062 45.890625 -42.8125 C 45.128906 -41.332031 44.476562 -40.070312 43.9375 -39.03125 C 43.394531 -37.988281 42.890625 -37 42.421875 -36.0625 C 41.953125 -35.125 41.445312 -34.101562 40.90625 -33 C 40.363281 -31.90625 39.71875 -30.535156 38.96875 -28.890625 L 38.96875 -7.84375 C 38.96875 -5.789062 39.25 -4.144531 39.8125 -2.90625 C 40.375 -1.675781 41.304688 -0.894531 42.609375 -0.5625 L 42.609375 0 L 17.421875 0 L 17.421875 -0.5625 C 18.722656 -0.894531 19.644531 -1.664062 20.1875 -2.875 C 20.726562 -4.09375 21.019531 -5.75 21.0625 -7.84375 L 21.390625 -28.78125 C 20.609375 -30.425781 19.945312 -31.796875 19.40625 -32.890625 C 18.863281 -33.992188 18.359375 -35.015625 17.890625 -35.953125 C 17.421875 -36.890625 16.925781 -37.878906 16.40625 -38.921875 C 15.882812 -39.960938 15.238281 -41.21875 14.46875 -42.6875 C 13.707031 -44.164062 12.765625 -46.007812 11.640625 -48.21875 C 10.742188 -50.007812 9.820312 -51.789062 8.875 -53.5625 C 7.925781 -55.332031 6.957031 -56.953125 5.96875 -58.421875 C 4.976562 -59.898438 3.988281 -61.078125 3 -61.953125 C 2.007812 -62.835938 1.007812 -63.28125 0 -63.28125 Z M 0 -63.28125 "/></g></g></g><g fill="#ffffff" fill-opacity="1"><g transform="translate(172.204548, 223.441845)"><g><path d="M 33.046875 -8.0625 C 33.046875 -10.53125 32.613281 -12.660156 31.75 -14.453125 C 30.894531 -16.242188 29.738281 -17.8125 28.28125 -19.15625 C 26.820312 -20.5 25.1875 -21.71875 23.375 -22.8125 C 21.5625 -23.914062 19.691406 -25 17.765625 -26.0625 C 15.847656 -27.125 13.984375 -28.257812 12.171875 -29.46875 C 10.367188 -30.6875 8.738281 -32.097656 7.28125 -33.703125 C 5.820312 -35.316406 4.660156 -37.210938 3.796875 -39.390625 C 2.941406 -41.578125 2.515625 -44.164062 2.515625 -47.15625 C 2.515625 -51.21875 3.445312 -54.554688 5.3125 -57.171875 C 7.1875 -59.785156 9.726562 -61.726562 12.9375 -63 C 16.144531 -64.269531 19.75 -64.90625 23.75 -64.90625 C 25.757812 -64.90625 27.585938 -64.820312 29.234375 -64.65625 C 30.878906 -64.488281 32.519531 -64.3125 34.15625 -64.125 C 35.800781 -63.9375 37.628906 -63.84375 39.640625 -63.84375 C 40.203125 -63.84375 40.8125 -63.925781 41.46875 -64.09375 C 42.125 -64.257812 42.597656 -64.53125 42.890625 -64.90625 L 43.453125 -64.90625 L 43.453125 -44.578125 L 42.890625 -44.578125 C 42.703125 -46.109375 42.195312 -47.75 41.375 -49.5 C 40.5625 -51.257812 39.507812 -52.976562 38.21875 -54.65625 C 36.925781 -56.332031 35.476562 -57.867188 33.875 -59.265625 C 32.269531 -60.671875 30.597656 -61.785156 28.859375 -62.609375 C 27.128906 -63.429688 25.40625 -63.84375 23.6875 -63.84375 C 21.5625 -63.84375 19.757812 -63.175781 18.28125 -61.84375 C 16.8125 -60.519531 16.078125 -58.644531 16.078125 -56.21875 C 16.078125 -53.875 16.503906 -51.84375 17.359375 -50.125 C 18.210938 -48.40625 19.378906 -46.898438 20.859375 -45.609375 C 22.335938 -44.328125 23.976562 -43.148438 25.78125 -42.078125 C 27.59375 -41.015625 29.476562 -39.96875 31.4375 -38.9375 C 33.40625 -37.914062 35.289062 -36.796875 37.09375 -35.578125 C 38.90625 -34.367188 40.546875 -32.988281 42.015625 -31.4375 C 43.492188 -29.894531 44.660156 -28.054688 45.515625 -25.921875 C 46.378906 -23.796875 46.8125 -21.296875 46.8125 -18.421875 C 46.8125 -15.660156 46.269531 -13.09375 45.1875 -10.71875 C 44.101562 -8.351562 42.582031 -6.289062 40.625 -4.53125 C 38.664062 -2.78125 36.359375 -1.410156 33.703125 -0.421875 C 31.054688 0.566406 28.164062 1.0625 25.03125 1.0625 C 21.96875 1.0625 19.191406 0.828125 16.703125 0.359375 C 14.222656 -0.109375 11.890625 -0.832031 9.703125 -1.8125 C 7.523438 -2.800781 5.351562 -4.082031 3.1875 -5.65625 L 3.1875 -26.828125 L 3.859375 -26.828125 C 3.859375 -26.035156 4.109375 -24.835938 4.609375 -23.234375 C 5.117188 -21.628906 5.835938 -19.816406 6.765625 -17.796875 C 7.703125 -15.785156 8.816406 -13.753906 10.109375 -11.703125 C 11.398438 -9.648438 12.828125 -7.742188 14.390625 -5.984375 C 15.960938 -4.234375 17.632812 -2.816406 19.40625 -1.734375 C 21.175781 -0.648438 23.015625 -0.109375 24.921875 -0.109375 C 27.015625 -0.109375 28.644531 -0.460938 29.8125 -1.171875 C 30.988281 -1.878906 31.820312 -2.832031 32.3125 -4.03125 C 32.800781 -5.226562 33.046875 -6.570312 33.046875 -8.0625 Z M 33.046875 -8.0625 "/></g></g></g><g fill="#ffffff" fill-opacity="1"><g transform="translate(219.853669, 223.441845)"><g><path d="M 1.40625 0 L 1.40625 -0.5625 C 2.707031 -0.894531 3.640625 -1.675781 4.203125 -2.90625 C 4.765625 -4.144531 5.046875 -5.789062 5.046875 -7.84375 L 5.046875 -56 C 5.046875 -58.09375 4.765625 -59.742188 4.203125 -60.953125 C 3.640625 -62.171875 2.707031 -62.945312 1.40625 -63.28125 L 1.40625 -63.84375 L 26.59375 -63.84375 L 26.59375 -63.28125 C 25.289062 -62.945312 24.359375 -62.171875 23.796875 -60.953125 C 23.234375 -59.742188 22.953125 -58.09375 22.953125 -56 L 22.953125 -7.84375 C 22.953125 -5.789062 23.234375 -4.144531 23.796875 -2.90625 C 24.359375 -1.675781 25.289062 -0.894531 26.59375 -0.5625 L 26.59375 0 Z M 1.40625 0 "/></g></g></g><g fill="#ffffff" fill-opacity="1"><g transform="translate(246.169769, 223.441845)"><g><path d="M 0 0 L 0 -0.5625 C 0.707031 -0.5625 1.390625 -1.0625 2.046875 -2.0625 C 2.703125 -3.070312 3.316406 -4.359375 3.890625 -5.921875 C 4.472656 -7.492188 5.003906 -9.15625 5.484375 -10.90625 C 5.972656 -12.664062 6.40625 -14.296875 6.78125 -15.796875 C 7.75 -19.566406 8.632812 -23.046875 9.4375 -26.234375 C 10.238281 -29.429688 11.003906 -32.492188 11.734375 -35.421875 C 12.460938 -38.347656 13.191406 -41.273438 13.921875 -44.203125 C 14.648438 -47.140625 15.421875 -50.210938 16.234375 -53.421875 C 17.054688 -56.628906 17.9375 -60.101562 18.875 -63.84375 L 37.40625 -63.84375 C 38.375 -60.101562 39.257812 -56.628906 40.0625 -53.421875 C 40.863281 -50.210938 41.640625 -47.140625 42.390625 -44.203125 C 43.140625 -41.273438 43.882812 -38.347656 44.625 -35.421875 C 45.375 -32.492188 46.140625 -29.429688 46.921875 -26.234375 C 47.710938 -23.046875 48.570312 -19.566406 49.5 -15.796875 C 49.875 -14.296875 50.300781 -12.664062 50.78125 -10.90625 C 51.269531 -9.15625 51.800781 -7.492188 52.375 -5.921875 C 52.957031 -4.359375 53.578125 -3.070312 54.234375 -2.0625 C 54.890625 -1.0625 55.570312 -0.5625 56.28125 -0.5625 L 56.28125 0 L 28.171875 0 L 28.171875 -0.5625 C 29.546875 -1.601562 30.429688 -3.113281 30.828125 -5.09375 C 31.222656 -7.070312 31.316406 -9.320312 31.109375 -11.84375 C 30.898438 -14.363281 30.515625 -16.929688 29.953125 -19.546875 L 14.171875 -19.546875 C 14.546875 -15.210938 15.410156 -11.441406 16.765625 -8.234375 C 18.128906 -5.023438 20.117188 -2.46875 22.734375 -0.5625 L 22.734375 0 Z M 19.375 -61.9375 C 17.507812 -53.757812 16.082031 -46.195312 15.09375 -39.25 C 14.101562 -32.3125 13.773438 -26.113281 14.109375 -20.65625 L 29.734375 -20.65625 C 29.398438 -22.113281 29.054688 -23.539062 28.703125 -24.9375 C 28.347656 -26.34375 28.019531 -27.679688 27.71875 -28.953125 C 27.050781 -31.566406 26.453125 -33.898438 25.921875 -35.953125 C 25.398438 -38.003906 24.90625 -39.953125 24.4375 -41.796875 C 23.976562 -43.648438 23.503906 -45.546875 23.015625 -47.484375 C 22.523438 -49.429688 21.988281 -51.5625 21.40625 -53.875 C 20.832031 -56.1875 20.15625 -58.875 19.375 -61.9375 Z M 19.375 -61.9375 "/></g></g></g><g fill="#ffffff" fill-opacity="1"><g transform="translate(300.761905, 223.441845)"><g><path d="M 1.40625 -63.28125 L 1.40625 -63.84375 L 19.65625 -63.84375 L 46.203125 -18.3125 L 46.203125 -21.953125 C 46.203125 -24.710938 46.015625 -27.625 45.640625 -30.6875 C 45.265625 -33.75 44.738281 -36.8125 44.0625 -39.875 C 43.394531 -42.9375 42.613281 -45.835938 41.71875 -48.578125 C 40.820312 -51.328125 39.820312 -53.789062 38.71875 -55.96875 C 37.625 -58.15625 36.476562 -59.890625 35.28125 -61.171875 C 34.082031 -62.460938 32.867188 -63.164062 31.640625 -63.28125 L 31.640625 -63.84375 L 50.953125 -63.84375 L 50.953125 -63.28125 C 49.648438 -62.945312 48.71875 -62.171875 48.15625 -60.953125 C 47.59375 -59.742188 47.3125 -58.09375 47.3125 -56 L 47.3125 -7.84375 C 47.3125 -5.789062 47.59375 -4.144531 48.15625 -2.90625 C 48.71875 -1.675781 49.648438 -0.894531 50.953125 -0.5625 L 50.953125 0 L 35.453125 0 L 6.15625 -50.28125 L 6.15625 -47.265625 C 6.15625 -44.242188 6.332031 -41.050781 6.6875 -37.6875 C 7.039062 -34.320312 7.550781 -30.957031 8.21875 -27.59375 C 8.894531 -24.238281 9.703125 -21.019531 10.640625 -17.9375 C 11.578125 -14.863281 12.601562 -12.078125 13.71875 -9.578125 C 14.84375 -7.078125 16.035156 -5.039062 17.296875 -3.46875 C 18.566406 -1.90625 19.894531 -0.9375 21.28125 -0.5625 L 21.28125 0 L 1.40625 0 L 1.40625 -0.5625 C 2.707031 -0.894531 3.640625 -1.675781 4.203125 -2.90625 C 4.765625 -4.144531 5.046875 -5.789062 5.046875 -7.84375 L 5.046875 -56 C 5.046875 -58.09375 4.765625 -59.742188 4.203125 -60.953125 C 3.640625 -62.171875 2.707031 -62.945312 1.40625 -63.28125 Z M 1.40625 -63.28125 "/></g></g></g><g clip-path="url(#80dc993ec1)"><path fill="#ffffff" d="M 77.613281 185.25 L 285.871094 185.25 L 285.871094 207.234375 L 77.613281 207.234375 Z M 77.613281 185.25 " fill-opacity="1" fill-rule="nonzero"/></g><g fill="#231f20" fill-opacity="1"><g transform="translate(115.811438, 200.842429)"><g><path d="M 2.96875 -8.921875 L 2.96875 -5.875 L 6.8125 -5.875 L 6.8125 -4.3125 L 2.96875 -4.3125 L 2.96875 0 L 1.171875 0 L 1.171875 -10.5 L 7.796875 -10.5 L 7.796875 -8.921875 Z M 2.96875 -8.921875 "/></g></g></g><g fill="#231f20" fill-opacity="1"><g transform="translate(135.76143, 200.842429)"><g><path d="M 6.90625 0 L 6.265625 -2.28125 L 2.765625 -2.28125 L 2.109375 0 L 0.375 0 L 3.453125 -10.5 L 5.859375 -10.5 L 8.84375 0 Z M 4.546875 -8.875 L 3.15625 -3.71875 L 5.875 -3.71875 Z M 4.546875 -8.875 "/></g></g></g><g fill="#231f20" fill-opacity="1"><g transform="translate(157.181415, 200.842429)"><g><path d="M 7.90625 -0.5625 C 7.601562 -0.3125 7.265625 -0.15625 6.890625 -0.09375 C 6.515625 -0.03125 6.039062 0 5.46875 0 L 1.25 0 L 1.25 -10.5 L 5.46875 -10.5 C 5.820312 -10.5 6.082031 -10.492188 6.25 -10.484375 C 6.425781 -10.472656 6.648438 -10.429688 6.921875 -10.359375 C 7.203125 -10.296875 7.445312 -10.191406 7.65625 -10.046875 C 8.375 -9.546875 8.734375 -8.828125 8.734375 -7.890625 C 8.734375 -7.335938 8.5625 -6.84375 8.21875 -6.40625 C 7.882812 -5.96875 7.429688 -5.660156 6.859375 -5.484375 L 6.828125 -5.359375 C 7.484375 -5.203125 8.007812 -4.878906 8.40625 -4.390625 C 8.8125 -3.898438 9.015625 -3.332031 9.015625 -2.6875 C 9.015625 -1.863281 8.644531 -1.15625 7.90625 -0.5625 Z M 6.21875 -8.921875 C 6.101562 -9.003906 5.945312 -9.0625 5.75 -9.09375 C 5.5625 -9.125 5.390625 -9.132812 5.234375 -9.125 C 5.078125 -9.125 4.910156 -9.125 4.734375 -9.125 L 3.03125 -9.125 L 3.03125 -6.09375 L 4.921875 -6.09375 C 5.585938 -6.09375 6.054688 -6.203125 6.328125 -6.421875 C 6.691406 -6.722656 6.875 -7.144531 6.875 -7.6875 C 6.875 -8.25 6.65625 -8.660156 6.21875 -8.921875 Z M 6.375 -4.484375 C 6.125 -4.648438 5.6875 -4.734375 5.0625 -4.734375 L 3.03125 -4.734375 L 3.03125 -1.453125 L 4.953125 -1.453125 C 5.648438 -1.453125 6.144531 -1.550781 6.4375 -1.75 C 6.863281 -2.039062 7.078125 -2.507812 7.078125 -3.15625 C 7.078125 -3.425781 7.007812 -3.679688 6.875 -3.921875 C 6.75 -4.171875 6.582031 -4.359375 6.375 -4.484375 Z M 6.375 -4.484375 "/></g></g></g><g fill="#231f20" fill-opacity="1"><g transform="translate(178.871401, 200.842429)"><g><path d="M 5.609375 -10.5 C 6.691406 -10.5 7.539062 -10.269531 8.15625 -9.8125 C 8.769531 -9.363281 9.078125 -8.53125 9.078125 -7.3125 C 9.078125 -6.8125 8.988281 -6.4375 8.8125 -6.1875 C 8.632812 -5.9375 8.285156 -5.597656 7.765625 -5.171875 C 8.523438 -4.640625 8.90625 -3.890625 8.90625 -2.921875 L 8.90625 -1.953125 C 8.90625 -1.304688 9.085938 -0.84375 9.453125 -0.5625 L 9.453125 0 L 7.59375 0 C 7.40625 -0.445312 7.285156 -0.789062 7.234375 -1.03125 C 7.191406 -1.28125 7.171875 -1.609375 7.171875 -2.015625 L 7.171875 -2.65625 C 7.171875 -3.207031 7.070312 -3.628906 6.875 -3.921875 C 6.6875 -4.210938 6.296875 -4.359375 5.703125 -4.359375 L 2.546875 -4.359375 L 2.546875 0 L 0.8125 0 L 0.8125 -10.5 Z M 5.96875 -5.828125 C 6.382812 -5.828125 6.707031 -5.941406 6.9375 -6.171875 C 7.175781 -6.398438 7.296875 -6.832031 7.296875 -7.46875 C 7.296875 -8.507812 6.742188 -9.03125 5.640625 -9.03125 L 2.546875 -9.03125 L 2.546875 -5.828125 Z M 5.96875 -5.828125 "/></g></g></g><g fill="#231f20" fill-opacity="1"><g transform="translate(200.756394, 200.842429)"><g><path d="M 1.25 0 L 1.25 -10.5 L 3.03125 -10.5 L 3.03125 0 Z M 1.25 0 "/></g></g></g><g fill="#231f20" fill-opacity="1"><g transform="translate(217.166386, 200.842429)"><g><path d="M 5.078125 0.046875 C 3.734375 0.046875 2.675781 -0.46875 1.90625 -1.5 C 1.144531 -2.53125 0.765625 -3.816406 0.765625 -5.359375 C 0.765625 -6.910156 1.15625 -8.191406 1.9375 -9.203125 C 2.71875 -10.222656 3.785156 -10.734375 5.140625 -10.734375 C 7.316406 -10.734375 8.578125 -9.507812 8.921875 -7.0625 L 7.03125 -6.921875 C 6.988281 -7.578125 6.8125 -8.125 6.5 -8.5625 C 6.195312 -9 5.722656 -9.21875 5.078125 -9.21875 C 4.679688 -9.21875 4.328125 -9.082031 4.015625 -8.8125 C 3.710938 -8.539062 3.476562 -8.191406 3.3125 -7.765625 C 3.15625 -7.335938 3.035156 -6.90625 2.953125 -6.46875 C 2.867188 -6.039062 2.828125 -5.628906 2.828125 -5.234375 C 2.828125 -4.628906 2.898438 -4.050781 3.046875 -3.5 C 3.191406 -2.957031 3.445312 -2.476562 3.8125 -2.0625 C 4.1875 -1.65625 4.644531 -1.453125 5.1875 -1.453125 C 5.757812 -1.453125 6.207031 -1.648438 6.53125 -2.046875 C 6.851562 -2.453125 7.066406 -2.945312 7.171875 -3.53125 L 8.921875 -3.40625 C 8.765625 -2.300781 8.347656 -1.445312 7.671875 -0.84375 C 6.992188 -0.25 6.128906 0.046875 5.078125 0.046875 Z M 5.078125 0.046875 "/></g></g></g><g fill="#231f20" fill-opacity="1"><g transform="translate(238.856372, 200.842429)"><g><path d="M 0.8125 -7.515625 C 0.8125 -8.472656 1.109375 -9.238281 1.703125 -9.8125 C 2.296875 -10.394531 3.125 -10.6875 4.1875 -10.6875 C 5.96875 -10.6875 7.125 -9.984375 7.65625 -8.578125 L 6.046875 -8.03125 C 5.890625 -8.394531 5.691406 -8.664062 5.453125 -8.84375 C 5.210938 -9.019531 4.832031 -9.109375 4.3125 -9.109375 C 3.875 -9.109375 3.507812 -9.007812 3.21875 -8.8125 C 2.925781 -8.625 2.78125 -8.316406 2.78125 -7.890625 C 2.78125 -7.472656 2.878906 -7.171875 3.078125 -6.984375 C 3.273438 -6.804688 3.6875 -6.65625 4.3125 -6.53125 C 4.414062 -6.53125 4.578125 -6.488281 4.796875 -6.40625 C 5.023438 -6.332031 5.273438 -6.257812 5.546875 -6.1875 C 5.828125 -6.125 6.113281 -6.003906 6.40625 -5.828125 C 6.707031 -5.648438 6.972656 -5.457031 7.203125 -5.25 C 7.441406 -5.039062 7.640625 -4.765625 7.796875 -4.421875 C 7.953125 -4.078125 8.03125 -3.695312 8.03125 -3.28125 C 8.03125 -2.695312 7.921875 -2.179688 7.703125 -1.734375 C 7.492188 -1.285156 7.203125 -0.929688 6.828125 -0.671875 C 6.460938 -0.410156 6.050781 -0.21875 5.59375 -0.09375 C 5.144531 0.03125 4.648438 0.09375 4.109375 0.09375 C 3.203125 0.09375 2.414062 -0.113281 1.75 -0.53125 C 1.082031 -0.945312 0.628906 -1.582031 0.390625 -2.4375 C 1.515625 -2.789062 2.117188 -2.96875 2.203125 -2.96875 C 2.378906 -2.4375 2.632812 -2.066406 2.96875 -1.859375 C 3.3125 -1.660156 3.757812 -1.5625 4.3125 -1.5625 C 4.53125 -1.5625 4.757812 -1.59375 5 -1.65625 C 5.25 -1.71875 5.492188 -1.851562 5.734375 -2.0625 C 5.972656 -2.269531 6.09375 -2.523438 6.09375 -2.828125 C 6.09375 -3.003906 6.070312 -3.160156 6.03125 -3.296875 C 5.988281 -3.429688 5.929688 -3.546875 5.859375 -3.640625 C 5.785156 -3.734375 5.695312 -3.816406 5.59375 -3.890625 C 5.488281 -3.972656 5.378906 -4.035156 5.265625 -4.078125 C 5.160156 -4.128906 5.046875 -4.175781 4.921875 -4.21875 C 4.796875 -4.257812 4.671875 -4.289062 4.546875 -4.3125 C 4.421875 -4.332031 4.300781 -4.359375 4.1875 -4.390625 C 3.65625 -4.515625 3.21875 -4.640625 2.875 -4.765625 C 2.53125 -4.890625 2.179688 -5.0625 1.828125 -5.28125 C 1.484375 -5.507812 1.226562 -5.804688 1.0625 -6.171875 C 0.894531 -6.546875 0.8125 -6.992188 0.8125 -7.515625 Z M 0.8125 -7.515625 "/></g></g></g></svg>