<svg xmlns="http://www.w3.org/2000/svg" xmlns:xlink="http://www.w3.org/1999/xlink" width="500" zoomAndPan="magnify" viewBox="0 0 375 374.999991" height="500" preserveAspectRatio="xMidYMid meet" version="1.0"><defs><g/><clipPath id="4140e3e1da"><path d="M 0 19.925781 L 199.457031 19.925781 L 199.457031 311.722656 L 0 311.722656 Z M 0 19.925781 " clip-rule="nonzero"/></clipPath></defs><g fill="#ffffff" fill-opacity="1"><g transform="translate(167.475139, 295.441969)"><g><path d="M 6.234375 -205.9375 L 6.234375 -208.015625 L 155.1875 -208.015625 L 155.1875 -179.9375 L 153.09375 -179.9375 L 153.09375 -180.765625 C 153.09375 -187.703125 146.539062 -193.628906 133.4375 -198.546875 C 120.332031 -203.472656 101.785156 -205.9375 77.796875 -205.9375 L 43.265625 -205.9375 L 43.265625 -116.484375 C 46.453125 -119.535156 50.09375 -121.894531 54.1875 -123.5625 C 58.28125 -125.226562 62.679688 -126.0625 67.390625 -126.0625 C 72.523438 -126.0625 77.207031 -125.398438 81.4375 -124.078125 C 85.664062 -122.765625 89.6875 -121.273438 93.5 -119.609375 C 97.3125 -117.941406 101.160156 -116.445312 105.046875 -115.125 C 108.929688 -113.8125 113.160156 -113.15625 117.734375 -113.15625 C 121.753906 -113.15625 125.320312 -114.226562 128.4375 -116.375 C 131.5625 -118.53125 133.125 -121.410156 133.125 -125.015625 L 135.203125 -125.015625 C 135.203125 -118.910156 132.8125 -113.570312 128.03125 -109 C 123.25 -104.425781 116.765625 -102.140625 108.578125 -102.140625 C 102.203125 -102.140625 96.65625 -103.039062 91.9375 -104.84375 C 87.226562 -106.644531 83 -108.722656 79.25 -111.078125 C 75.507812 -113.429688 71.9375 -115.546875 68.53125 -117.421875 C 65.132812 -119.296875 61.566406 -120.300781 57.828125 -120.4375 C 54.773438 -120.582031 52 -119.957031 49.5 -118.5625 C 47.007812 -117.175781 44.929688 -115.375 43.265625 -113.15625 L 43.265625 -2.078125 L 69.890625 -2.078125 C 73.222656 -2.078125 77.554688 -2.179688 82.890625 -2.390625 C 88.234375 -2.597656 94.023438 -3.046875 100.265625 -3.734375 C 106.503906 -4.429688 112.707031 -5.507812 118.875 -6.96875 C 125.050781 -8.425781 130.738281 -10.332031 135.9375 -12.6875 C 141.132812 -15.039062 145.289062 -17.984375 148.40625 -21.515625 C 151.53125 -25.054688 153.09375 -29.328125 153.09375 -34.328125 L 155.1875 -34.328125 L 155.1875 0 L 6.234375 0 L 6.234375 -2.078125 C 12.203125 -2.078125 16.535156 -3.878906 19.234375 -7.484375 C 21.941406 -11.085938 23.640625 -16.976562 24.328125 -25.15625 C 25.023438 -33.34375 25.375 -44.234375 25.375 -57.828125 L 25.375 -150.1875 C 25.375 -163.914062 25.023438 -174.835938 24.328125 -182.953125 C 23.640625 -191.066406 21.941406 -196.925781 19.234375 -200.53125 C 16.535156 -204.132812 12.203125 -205.9375 6.234375 -205.9375 Z M 6.234375 -205.9375 "/></g></g></g><g clip-path="url(#4140e3e1da)"><path fill="#ffffff" d="M 391.304688 94.222656 C 391.210938 95.289062 390.992188 95.546875 389.925781 95.742188 C 388.335938 96.03125 386.734375 96.40625 385.132812 96.445312 C 381.882812 96.523438 378.65625 96.878906 375.417969 97.054688 C 371.136719 97.277344 357.871094 94.882812 353.90625 93.96875 C 344.871094 91.886719 333.667969 88.84375 317.160156 82.160156 C 312.429688 80.242188 317.769531 77.984375 310.011719 68.667969 C 308.070312 66.332031 304.421875 65.667969 303.878906 64.605469 C 306.65625 63.023438 320.140625 60.417969 323.035156 59.941406 C 329.664062 58.847656 340.28125 58.902344 346.785156 59.195312 C 363.859375 59.972656 366.046875 62.136719 369.480469 62.671875 C 373.910156 63.363281 377.101562 65.285156 385.542969 70.371094 C 390.71875 73.488281 390.144531 74.738281 390.859375 75.0625 C 391.976562 75.570312 393.027344 75.21875 391.304688 94.222656 Z M 387.949219 127.484375 C 387.667969 128.082031 387.277344 128.414062 386.582031 128.417969 C 371.042969 128.445312 377.585938 127.746094 365.683594 126.652344 C 363.183594 126.421875 360.8125 125.6875 358.5 124.820312 C 352.273438 122.484375 345.882812 120.542969 339.851562 117.691406 C 337.539062 116.589844 335.269531 115.375 332.898438 114.425781 C 329.890625 113.222656 327.226562 111.316406 324.097656 110.375 C 316.378906 108.0625 311.351562 103.375 306.121094 102.445312 C 304.1875 102.101562 305.945312 101.304688 309.453125 96.742188 C 315.335938 89.09375 313.136719 82.539062 315.746094 83.976562 C 325.066406 89.089844 363.753906 100.746094 377.972656 99.335938 C 385.660156 98.574219 379.75 99.554688 388.429688 98.453125 C 389.257812 98.351562 390.710938 97.773438 390.714844 99.050781 C 390.734375 103.308594 393.359375 115.941406 387.949219 127.484375 Z M 379.46875 156.101562 C 377.769531 161.976562 375.328125 168.671875 371.636719 173.515625 C 365.226562 181.933594 364.058594 193.953125 351.3125 203.855469 C 348.90625 205.726562 346.480469 205.914062 343.683594 204.921875 C 338.878906 203.222656 330.871094 197.941406 326.917969 194.738281 C 314.316406 184.539062 314.738281 184.15625 310.515625 180.113281 C 308.355469 178.046875 305.242188 175.316406 305.054688 175.078125 C 302.570312 171.976562 295.097656 164.660156 289.753906 157.867188 C 283.394531 149.796875 277.285156 143.996094 277.269531 143.980469 C 272.507812 139.082031 269.703125 135.367188 261.589844 129.71875 C 259.363281 128.164062 256.59375 126.695312 255.878906 123.671875 C 260.183594 120.800781 266.90625 119.78125 271.789062 117.859375 C 277.027344 115.800781 277.613281 115.59375 277.773438 116.617188 C 278.164062 119.210938 280.8125 115.445312 307.324219 135.546875 C 323.410156 147.742188 351.9375 165.898438 370.171875 169.753906 C 370.632812 169.847656 372.257812 170.019531 372.96875 169.84375 C 374.367188 169.503906 374.214844 167.25 372.734375 167.472656 C 366.019531 168.484375 343.167969 156.144531 337.289062 152.871094 C 325.808594 146.464844 310.460938 135.175781 297.605469 126.105469 C 278.832031 112.859375 273.917969 117.105469 288.914062 111.421875 C 289.898438 111.046875 291.878906 109.796875 293.035156 109.359375 C 301.382812 106.179688 301.183594 103.503906 304.433594 104.234375 C 307.660156 104.960938 311.640625 106.894531 313.390625 107.957031 C 319.253906 111.535156 321.640625 111.304688 327.652344 114.261719 C 341.679688 121.160156 341.429688 121.191406 360.273438 127.789062 C 364.066406 129.117188 367.480469 129.058594 372.875 129.949219 C 381.203125 131.3125 380.585938 130.402344 386.214844 130.894531 C 379.671875 149.3125 382.867188 144.324219 379.46875 156.101562 Z M 345.003906 216.359375 C 344.382812 216.867188 343.820312 216.625 342.992188 216.304688 C 340.992188 216.28125 339.003906 216.015625 337.007812 215.921875 C 331.398438 215.664062 325.832031 215.90625 320.199219 216.144531 C 313.640625 216.421875 307.074219 215.984375 300.546875 215.328125 C 295.988281 214.871094 290.378906 212.8125 286.003906 211.367188 C 274.78125 207.644531 275.253906 206.886719 267.644531 203.589844 C 266.320312 203.015625 265.617188 202.644531 253.804688 193.507812 C 245.167969 186.828125 245.898438 186.6875 233.5625 174.355469 C 232.53125 173.320312 231.476562 172.320312 230.40625 171.332031 C 229.808594 170.769531 228.691406 170.140625 228.679688 169.226562 C 229.515625 168.953125 231.316406 171.0625 231.890625 171.613281 C 233.292969 172.953125 234.644531 174.34375 236.039062 175.691406 C 239.808594 179.34375 243.816406 182.753906 248.273438 185.546875 C 248.878906 185.925781 250.03125 186.59375 250.28125 185.925781 C 250.546875 185.199219 249.300781 184.589844 249.089844 184.449219 C 246 182.394531 243.121094 180.105469 240.390625 177.597656 C 238.777344 176.117188 237.199219 174.597656 235.613281 173.089844 C 234.570312 172.09375 233.527344 171.101562 232.476562 170.117188 C 231.894531 169.570312 231.320312 169.019531 230.734375 168.480469 C 230.449219 168.222656 229.339844 167.320312 230.152344 167.144531 C 230.484375 167.070312 231.703125 168.113281 232.015625 168.3125 C 232.738281 168.777344 233.449219 169.246094 234.15625 169.730469 C 236.476562 171.3125 238.714844 173.007812 240.890625 174.78125 C 244.367188 177.621094 247.675781 180.695312 251.453125 183.140625 C 253.542969 184.492188 255.753906 185.640625 258.050781 186.601562 C 262.621094 188.507812 263.636719 189.1875 264.113281 188.476562 C 264.277344 188.226562 264.066406 187.960938 263.839844 187.851562 C 260.054688 185.996094 255.914062 184.417969 252.421875 182.019531 C 248.367188 179.230469 244.660156 175.851562 240.746094 172.859375 C 239.359375 171.792969 237.960938 170.738281 236.558594 169.6875 C 235.738281 169.070312 234.914062 168.453125 234.085938 167.839844 C 233.824219 167.644531 231.691406 166.308594 232.207031 166.015625 C 232.707031 165.734375 234.902344 166.976562 235.40625 167.230469 C 238.675781 168.878906 241.648438 171.230469 244.554688 173.421875 C 250.480469 177.886719 255.277344 179.964844 255.71875 180.070312 C 256.859375 180.332031 257.183594 179.605469 256.15625 179.039062 C 247.027344 174.003906 246.875 172.480469 238.601562 167.140625 C 234.589844 164.550781 236.691406 166.253906 223.398438 159.285156 C 221.613281 158.347656 222.226562 157.945312 223.480469 158.347656 C 227.535156 159.648438 231.488281 161.253906 235.15625 163.425781 C 236.4375 164.191406 237.675781 165.015625 238.921875 165.835938 C 239.492188 166.214844 240.058594 166.589844 240.632812 166.953125 C 240.921875 167.136719 241.632812 167.84375 242.019531 167.617188 C 242.609375 167.265625 241.929688 166.984375 241.914062 166.640625 C 241.90625 166.496094 241.75 166.3125 241.738281 166.152344 C 242.839844 166.1875 244.25 167.421875 245.164062 167.964844 C 248.566406 169.964844 252.023438 171.863281 255.542969 173.640625 C 261.949219 176.871094 267.976562 180.78125 274.324219 184.121094 C 274.339844 184.128906 305.109375 199.921875 308.085938 201.308594 C 316.71875 205.332031 329.308594 209.15625 337.316406 209.273438 C 340.511719 209.320312 344.433594 212.855469 345.003906 216.359375 Z M 346.609375 220.929688 C 347.714844 225.363281 352.066406 235.761719 346.777344 252.132812 C 344.078125 260.472656 333.984375 276.828125 331.078125 280.5 C 330.535156 281.1875 330.242188 281.210938 329.566406 280.792969 C 327.308594 279.417969 325.019531 278.09375 322.800781 276.65625 C 311.570312 269.378906 302.992188 259.269531 297.175781 254.355469 C 296.460938 253.75 287.429688 244.027344 277.984375 231.09375 C 276.011719 228.394531 269.492188 218.152344 264.15625 210.15625 C 257.042969 199.492188 256.921875 200.445312 257.1875 199.441406 C 258.679688 199.824219 262.1875 203.902344 269.59375 207.394531 C 276.957031 210.863281 278.011719 210.875 280.402344 213.539062 C 293.652344 228.308594 296.332031 228.613281 305.222656 236.375 C 312.859375 243.042969 341.804688 260.257812 342.890625 257.132812 C 343.066406 256.636719 342.851562 255.722656 342.484375 255.488281 C 340.9375 254.519531 341.832031 256.621094 324.21875 246.375 C 313.628906 240.207031 312.757812 239.605469 308.746094 236.394531 C 308.636719 236.3125 283.027344 215.953125 283.3125 213.441406 C 285.109375 213.164062 292.796875 217.582031 304.355469 218.007812 C 312.136719 218.296875 317.011719 219.167969 324.0625 218.402344 C 328.738281 217.890625 333.449219 217.957031 338.148438 218.039062 C 340.371094 218.078125 342.527344 218.703125 344.699219 219.164062 C 345.679688 219.367188 346.335938 219.828125 346.609375 220.929688 Z M 321.730469 290.152344 C 320.917969 291.050781 319.976562 291.175781 318.941406 290.808594 C 312.769531 288.597656 308.035156 285.371094 302.40625 282.183594 C 301.402344 281.613281 293.410156 274.832031 292.148438 273.699219 C 287.398438 269.425781 282.851562 264.082031 278.835938 258.863281 C 274.515625 253.242188 275.203125 254.835938 274.273438 253.355469 C 270.847656 247.886719 271.285156 250.003906 263.265625 237.09375 C 263.035156 236.71875 263.015625 236.683594 263.035156 236.707031 C 262.796875 236.347656 261.160156 233.871094 252.261719 220.140625 C 251.203125 218.515625 252.339844 219.515625 247.886719 212.640625 C 242.886719 204.910156 244.1875 205.925781 239.824219 198.691406 C 221.375 168.097656 221.777344 170.957031 221.996094 169.542969 C 222.085938 168.921875 221.523438 168.480469 221.148438 168.015625 C 218.773438 165.046875 218.957031 165.59375 219.398438 165.0625 C 224.199219 167.84375 237.6875 182.054688 241.550781 186.125 C 248.542969 193.496094 250.09375 192.5625 253.046875 197.664062 C 256.035156 202.816406 255.273438 200.878906 268.039062 220.273438 C 279.144531 237.140625 278.675781 236.1875 287.777344 247.339844 C 293.078125 253.835938 315.828125 276.4375 326.808594 282.023438 C 327.40625 282.328125 328.144531 282.363281 328.632812 283 C 327.074219 285.25 323.183594 288.550781 321.730469 290.152344 Z M 301.996094 297.757812 C 298.515625 296.984375 292.875 297.0625 287.007812 293.035156 C 274.507812 284.460938 267.46875 279.332031 251.84375 260.113281 C 249.058594 256.691406 248.335938 254.359375 240.609375 240.308594 C 233.316406 227.046875 232.675781 222.484375 228.761719 213.402344 C 225.84375 206.632812 226.890625 207.214844 225.78125 204.191406 C 223.894531 199.050781 217.128906 180.320312 213.144531 173.160156 C 212.304688 171.65625 213.207031 171.265625 213.503906 171.550781 C 215.136719 173.125 220.152344 183.527344 221.703125 187.425781 C 228.523438 204.59375 227.601562 204.472656 231.171875 210.878906 C 231.175781 208.488281 231.03125 208.242188 225.152344 192.539062 C 219.136719 176.460938 218.484375 177.773438 218.085938 176.675781 C 217.46875 174.964844 216.558594 173.375 215.585938 171.84375 C 215.144531 171.15625 214.6875 170.480469 214.246094 169.800781 C 214.117188 169.601562 213.644531 169.09375 213.675781 168.851562 C 213.804688 167.777344 214.589844 168.910156 214.816406 169.203125 C 215.4375 170 216.109375 170.742188 216.621094 171.625 C 230.609375 195.816406 228.9375 198.875 233.054688 202.097656 C 233.273438 201.339844 232.882812 200.742188 232.582031 200.164062 C 225.894531 187.253906 227.394531 186.277344 215.363281 167.191406 C 216.332031 167.007812 216.800781 167.453125 217.210938 167.992188 C 240.351562 198.34375 251.054688 229.308594 285.121094 269.953125 C 288.734375 274.269531 288.714844 273.351562 290.816406 275.441406 C 299.210938 283.769531 307.261719 288.328125 318.238281 293.179688 C 315.339844 296.902344 309.359375 299.402344 301.996094 297.757812 Z M 212.300781 166.253906 C 212.214844 166.117188 211.859375 164.535156 211.992188 164.519531 C 212.65625 164.429688 212.953125 164.894531 213.316406 165.222656 C 213.496094 165.382812 213.734375 165.695312 213.460938 165.835938 C 213.113281 166.023438 212.949219 166.320312 213.003906 166.707031 C 212.714844 166.722656 212.480469 166.53125 212.300781 166.253906 Z M 212.242188 135.566406 L 212.21875 135.675781 C 212.109375 135.617188 212.117188 135.582031 212.242188 135.566406 Z M 213.054688 133.195312 C 215.898438 128.488281 218.621094 123.667969 222.175781 119.449219 C 227.03125 113.683594 232.984375 108.832031 238.742188 104.011719 C 240.238281 102.761719 241.734375 101.519531 243.234375 100.28125 C 244.070312 99.597656 244.902344 98.910156 245.738281 98.222656 C 246.019531 97.992188 246.683594 97.207031 247.027344 97.15625 C 247.242188 97.121094 247.449219 97.171875 247.578125 97.324219 C 247.363281 97.960938 246.578125 98.25 246.128906 98.71875 C 233.464844 111.816406 230.074219 111.761719 213.691406 134.195312 C 213.3125 134.710938 213.09375 135.421875 212.304688 135.496094 C 212.113281 134.59375 212.636719 133.882812 213.054688 133.195312 Z M 255.371094 89.785156 C 258.144531 87.09375 261.40625 85.058594 264.550781 82.863281 C 265.144531 82.449219 265.957031 82.1875 265.339844 83.183594 C 265.0625 83.636719 264.199219 84.058594 263.773438 84.386719 C 262.914062 85.050781 262.054688 85.714844 261.195312 86.382812 C 260.046875 87.265625 258.902344 88.148438 257.761719 89.03125 C 257.0625 89.570312 256.375 90.132812 255.671875 90.660156 C 255.671875 90.660156 255.667969 90.660156 255.667969 90.664062 C 254.835938 91.292969 249.679688 96.769531 248.820312 96.003906 C 248.300781 95.539062 254.679688 90.449219 255.371094 89.785156 Z M 226.796875 154.175781 C 216.707031 148.246094 216.617188 149.984375 216.40625 148.542969 C 216.136719 146.691406 216.628906 142.183594 217.308594 140.511719 C 217.515625 140.003906 217.949219 139.726562 218.390625 139.472656 C 228.792969 133.488281 226.589844 134.320312 229.902344 136.667969 C 232.296875 138.363281 234.195312 140.5625 235.835938 142.96875 C 238.578125 146.988281 241.164062 151.101562 243.566406 155.332031 C 254.28125 174.171875 256.214844 171.457031 226.796875 154.175781 Z M 231.847656 135.367188 C 228.421875 133.160156 227.691406 133.867188 250.796875 125.171875 C 251.480469 124.910156 252.332031 124.582031 252.9375 125.222656 C 253.152344 125.453125 253.167969 125.976562 253.402344 126.277344 C 253.710938 126.667969 254.234375 126.96875 254.640625 127.25 C 257.300781 129.109375 259.75 131.238281 262.472656 133.03125 C 277.441406 142.878906 311.851562 193.632812 340.640625 206.109375 C 345.582031 208.253906 327.410156 207.566406 309.492188 199.699219 C 298.582031 194.910156 292 190.664062 290.125 189.777344 C 285.113281 187.410156 275.800781 182.632812 267.453125 177.886719 C 261.953125 174.761719 256.054688 172.484375 252.722656 166.730469 C 246.960938 156.761719 237.917969 139.277344 231.847656 135.367188 Z M 293.597656 68.285156 C 295.234375 67.476562 301.632812 66.027344 306.460938 68.867188 C 310.789062 71.414062 313.410156 76.636719 312.570312 82.238281 C 310.828125 93.882812 303.953125 101.34375 296.449219 105.242188 C 284.398438 111.496094 261.667969 119.113281 246.792969 124.269531 C 224.335938 132.054688 224.75 134.507812 224.339844 131.972656 C 224.277344 131.601562 224.269531 131.300781 224.625 131.105469 C 239.074219 123.167969 259.492188 115.996094 260.253906 114.96875 C 261.570312 113.195312 264.722656 113.035156 264.714844 111.699219 C 260.738281 112.445312 229.441406 126.476562 229.453125 126.488281 C 228.996094 125.65625 229.945312 125.523438 233.128906 122.992188 C 233.144531 122.980469 242.917969 115.214844 243.039062 115.003906 C 243.261719 114.617188 242.972656 114.390625 242.632812 114.449219 C 241.769531 114.585938 241.070312 115.019531 240.351562 115.496094 C 237.785156 117.191406 235.355469 119.125 232.894531 120.960938 C 231.796875 121.78125 230.699219 122.601562 229.601562 123.417969 C 228.960938 123.898438 228.324219 124.386719 227.671875 124.855469 C 226.992188 125.347656 226.164062 125.527344 226.664062 124.632812 C 227.234375 123.621094 228.429688 122.675781 229.234375 121.847656 C 231.085938 119.949219 233.027344 118.140625 234.984375 116.359375 C 236.699219 114.800781 238.4375 113.273438 240.140625 111.710938 C 240.914062 111 242.507812 109.945312 242.878906 108.90625 C 242.90625 108.8125 243.042969 108.644531 242.925781 108.550781 C 241.90625 107.730469 241.238281 108.671875 231.109375 117.257812 C 230.597656 117.695312 230.097656 118.167969 229.460938 118.398438 C 230.027344 117.960938 230.421875 116.679688 236.730469 110.945312 C 244.285156 104.074219 244.769531 102.980469 249.894531 98.789062 C 262.734375 88.296875 272.695312 78.59375 293.597656 68.285156 Z M 319.488281 57.441406 C 324.148438 56.429688 322.335938 55.941406 336.25 54.054688 C 340.929688 53.421875 340.152344 54.402344 351.566406 53.199219 C 358.265625 52.492188 363.621094 52.792969 373.382812 55.105469 C 375.808594 55.679688 377.992188 56.84375 380.152344 58.078125 C 383.648438 60.078125 386.183594 63.050781 388.597656 66.160156 C 390.441406 68.535156 391.003906 69.195312 391.078125 70.21875 C 390.539062 70.71875 390.34375 69.992188 389.167969 69.300781 C 373.289062 60.027344 376.507812 61.660156 371.003906 60.066406 C 357.992188 56.292969 344.390625 56.730469 334.441406 56.617188 C 322.816406 56.488281 320.746094 58.617188 318.875 57.910156 C 319.105469 57.726562 319.273438 57.488281 319.488281 57.441406 Z M 207.207031 114.394531 C 207.332031 114.269531 207.417969 114.078125 207.546875 114.050781 C 208.515625 113.84375 209.222656 114.480469 209.148438 115.457031 C 209.125 115.777344 208.652344 116.0625 208.414062 115.890625 C 207.945312 115.5625 207.171875 114.96875 207.207031 114.394531 Z M 207.0625 146.265625 C 206.496094 147.414062 205.59375 148.3125 204.746094 149.25 C 203.941406 150.136719 205.128906 150.015625 205.28125 150.613281 C 205.488281 151.425781 203.414062 151.699219 204.410156 152.800781 C 204.585938 152.992188 204.449219 153.238281 204.390625 153.484375 C 204.332031 153.742188 204.167969 154.167969 204.433594 154.355469 C 204.6875 154.53125 205.0625 154.367188 205.316406 154.265625 C 205.457031 154.210938 205.847656 153.96875 205.945312 154.207031 C 206.070312 154.507812 205.679688 154.765625 205.527344 154.953125 C 205.269531 155.28125 205 155.589844 204.667969 155.847656 C 204.441406 156.027344 203.851562 156.371094 204.058594 156.738281 C 204.703125 157.867188 203.839844 158.292969 203.171875 158.761719 C 202.476562 159.242188 202.464844 160.085938 201.964844 160.679688 C 200.707031 162.164062 199.96875 162.214844 198.667969 160.785156 C 196.703125 158.617188 199.503906 158.125 197.480469 155.96875 C 197.253906 155.726562 196.875 155.308594 196.945312 155.15625 C 197.550781 153.90625 196.804688 153.074219 196.183594 152.164062 C 195.902344 151.746094 196.988281 151.308594 196.691406 150.621094 C 196.425781 150.007812 195.667969 149.59375 195.773438 148.855469 C 195.890625 148.03125 196.976562 148.113281 195.992188 144.347656 C 195.707031 143.261719 195.851562 142.070312 195.25 141.019531 C 194.84375 140.316406 196.304688 139.613281 195.722656 138.914062 C 193.984375 136.839844 196.839844 135.433594 196.238281 133.597656 C 195.519531 131.402344 194.605469 130.324219 197.140625 128.324219 C 197.621094 129.378906 197.445312 130.511719 198.136719 131.273438 C 198.863281 132.082031 198.792969 133.199219 199.304688 134.058594 C 200.097656 135.394531 199.65625 136.613281 200.371094 137.917969 C 201.914062 140.730469 199.425781 140.851562 200.089844 141.914062 C 200.597656 142.726562 200.875 143.582031 200.992188 144.535156 C 201.082031 145.257812 202.695312 144.554688 202.570312 143.730469 C 202.34375 142.167969 203.042969 140.71875 203.085938 139.253906 C 203.128906 137.828125 203.15625 136.398438 203.046875 134.972656 C 202.960938 133.816406 202.664062 132.351562 203.335938 131.292969 C 203.976562 130.285156 205.027344 129.695312 203.601562 128.648438 C 204.417969 128.378906 204.894531 128.53125 205.363281 128.765625 C 207.230469 129.703125 203.644531 132.042969 205.871094 132.308594 C 207 132.441406 206.375 133.066406 205.140625 135.925781 C 204.558594 137.277344 207.039062 135.871094 206.429688 137.324219 C 205.414062 139.761719 204.71875 140.1875 205.824219 140.546875 C 207.253906 141.015625 203.347656 143.867188 204.429688 144.574219 C 204.761719 144.792969 205.042969 144.238281 205.335938 144.703125 C 205.492188 144.957031 205.300781 145.230469 205.21875 145.457031 C 205.035156 145.972656 204.445312 146.320312 204.261719 146.832031 C 204.1875 147.035156 204.183594 147.171875 204.390625 147.242188 C 204.972656 147.4375 204.882812 147.433594 206.972656 145.183594 C 207.613281 145.59375 207.207031 145.980469 207.0625 146.265625 Z M 206.054688 184.960938 C 205.238281 186.460938 205.972656 188.054688 205.753906 189.597656 C 205.246094 193.109375 200.507812 198.128906 202.671875 197.984375 C 203.066406 197.957031 203.394531 197.601562 203.734375 197.457031 C 203.988281 198.121094 201.425781 200.625 203.101562 200.699219 C 204.144531 200.746094 203.316406 201.820312 202.417969 203.039062 C 202.078125 203.507812 201.988281 203.875 202.425781 204.367188 C 202.890625 204.894531 202.199219 205.25 202.082031 205.695312 C 201.816406 206.699219 202.855469 206.402344 203.96875 206.269531 C 204.222656 206.847656 203.785156 207.175781 202.230469 209.105469 C 202.582031 210.128906 203.832031 209.042969 204.78125 209.589844 C 204.019531 210.546875 203.242188 211.5 202.492188 212.480469 C 202.148438 212.933594 202.429688 213.367188 203.121094 213.3125 C 204.613281 213.1875 203.714844 214.484375 203.882812 215.132812 C 204.238281 216.5 204 217.851562 203.445312 219.128906 C 202.839844 220.515625 202.566406 220.035156 201.574219 219.3125 C 200.585938 218.589844 200.316406 217.3125 199.371094 216.554688 C 199.074219 216.320312 199.441406 216.136719 199.59375 215.96875 C 200.714844 214.71875 198.265625 214.894531 197.699219 213.253906 C 197.523438 212.734375 198.953125 213.5 199.019531 213.546875 C 199.371094 213.808594 199.722656 213.640625 199.828125 213.292969 C 199.925781 212.957031 199.195312 212.171875 199.03125 211.878906 C 198.855469 211.574219 198.460938 211.152344 198.683594 210.785156 C 199.535156 209.34375 197.175781 209.230469 197.722656 208.292969 C 197.945312 207.910156 198.289062 208.054688 198.621094 208.148438 C 198.753906 208.1875 198.925781 208.125 199.117188 208.097656 C 199.203125 206.792969 197.53125 205.191406 198.570312 205.285156 C 199.015625 205.324219 199.484375 206.023438 199.890625 205.351562 C 200.394531 204.503906 198.808594 204.527344 196.296875 199.402344 C 197.363281 199.457031 197.519531 201.015625 198.707031 201.03125 C 199.421875 199.753906 196.527344 197.546875 197.035156 196.476562 C 197.234375 196.046875 197.847656 196.566406 198.40625 196.632812 C 199.152344 196.722656 198.78125 195.90625 198.324219 195.296875 C 197.8125 194.617188 197.234375 193.980469 197.519531 193 C 197.648438 192.546875 197.273438 192.214844 197.078125 191.847656 C 194.96875 187.902344 194.683594 187.5625 195.523438 186.871094 C 196.394531 186.148438 194.453125 185.382812 194.078125 183.023438 C 193.96875 182.335938 194.070312 182.128906 194.992188 181.980469 C 195.492188 181.894531 195.929688 181.644531 195.75 181.214844 C 195.378906 180.308594 195.785156 179.351562 195.40625 178.46875 C 195.140625 177.839844 195.335938 177.351562 195.910156 176.929688 C 197.011719 176.121094 195.566406 175.453125 195.308594 173.980469 C 195.226562 173.527344 195.46875 173.300781 196.152344 173.398438 C 197.972656 173.65625 196.0625 170.496094 196.375 168.976562 C 196.90625 166.394531 198.535156 168.824219 198.40625 169.195312 C 197.945312 170.503906 198.863281 171.605469 198.851562 172.859375 C 198.839844 174.019531 198.765625 175.230469 199.324219 176.351562 C 199.457031 176.621094 199.46875 177.070312 199.335938 177.339844 C 198.34375 179.34375 199.4375 181.089844 199.976562 182.898438 C 201.191406 187 199.042969 186.882812 199.820312 187.960938 C 201.019531 189.628906 199.972656 191.195312 199.8125 192.871094 C 199.796875 193.011719 200.132812 193.621094 200.507812 193.253906 C 201.4375 192.34375 202.0625 191.234375 202.644531 190.09375 C 203.21875 188.972656 201.945312 186.9375 202.824219 185.605469 C 203.195312 185.050781 202.28125 185.300781 201.839844 180.316406 C 201.785156 179.652344 201.816406 179.175781 202.257812 178.710938 C 203.410156 177.5 200.636719 176.886719 202.671875 174.03125 C 203.839844 172.390625 201.753906 172.699219 202.703125 170.742188 C 203.128906 169.855469 203.328125 168.980469 202.941406 168.027344 C 202.917969 167.972656 203.105469 167.824219 203.195312 167.714844 C 203.3125 167.816406 203.492188 167.894531 203.539062 168.015625 C 204.703125 171.234375 202.402344 173.152344 204.445312 173.945312 C 204.601562 174.007812 204.621094 174.554688 204.621094 174.878906 C 204.621094 175.300781 204.476562 175.804688 204.949219 176 C 205.59375 176.269531 205.625 176.75 205.453125 177.242188 C 204.734375 179.292969 205.199219 181.398438 205.105469 183.472656 C 205.089844 183.839844 205.183594 184.164062 205.597656 184.222656 C 206.074219 184.289062 206.191406 184.707031 206.054688 184.960938 Z M 204.792969 209.574219 L 204.785156 209.523438 C 204.800781 209.519531 204.820312 209.515625 204.84375 209.511719 C 204.828125 209.535156 204.8125 209.554688 204.792969 209.574219 Z M 193.804688 120.652344 C 193.894531 116.652344 198.761719 115.710938 197.617188 117.132812 C 197.039062 117.851562 198.140625 118.410156 197.652344 119.011719 C 197.109375 119.679688 197.675781 120.0625 197.953125 120.558594 C 198.429688 121.417969 198.648438 122.242188 197.699219 123.039062 C 197.21875 123.449219 197.398438 123.851562 198.089844 124.136719 C 198.472656 124.292969 198.921875 124.324219 199.195312 124.6875 C 199.921875 125.644531 198.507812 125.601562 196.953125 125.835938 C 195.507812 125.882812 194.933594 125.605469 194.632812 124.609375 C 194.242188 123.320312 193.773438 122.039062 193.804688 120.652344 Z M 192.238281 116.582031 C 192.058594 116.71875 191.589844 116.441406 191.667969 116.054688 C 191.882812 114.972656 192.5 114.625 194.148438 114.667969 C 193.75 115.585938 192.929688 116.03125 192.238281 116.582031 Z M 202.328125 124.175781 C 203.480469 124.105469 204.210938 123.585938 203.851562 122.472656 C 203.804688 122.332031 203.917969 122.148438 203.949219 121.988281 C 204.03125 121.53125 204.832031 121.234375 204.34375 120.699219 C 203.917969 120.222656 203.332031 120.753906 202.597656 120.351562 C 204.265625 118.640625 204.265625 118.726562 202.898438 118.195312 C 202.535156 118.050781 202.449219 117.632812 202.757812 117.40625 C 204.335938 116.234375 204.738281 115.867188 205.347656 116.457031 C 205.773438 116.863281 206.25 117.246094 206.390625 117.949219 C 205.421875 119.105469 204.402344 119.90625 205.832031 120.324219 C 206.0625 120.390625 206.300781 120.421875 206.523438 120.492188 C 206.554688 120.503906 206.582031 120.691406 206.542969 120.734375 C 205.773438 121.558594 206.714844 122.492188 206.324219 123.394531 C 205.171875 126.066406 205.101562 126.144531 202.144531 125.609375 C 200.742188 125.355469 200.398438 125.304688 200.402344 124.925781 C 200.410156 124.019531 202.046875 124.195312 202.328125 124.175781 Z M 171.394531 216.410156 C 174.410156 216.171875 174.734375 199.777344 186.527344 174.339844 C 186.875 173.59375 187.175781 172.800781 188.023438 172.242188 C 188.007812 172.609375 188.054688 172.875 187.976562 173.09375 C 183.398438 185.574219 170.898438 232.914062 170.894531 232.925781 C 166.585938 250.519531 165.953125 253.257812 155.617188 277.695312 C 150.808594 289.0625 147.921875 292.363281 144.125 296.964844 C 139.195312 302.929688 135.644531 306.371094 127.523438 308.738281 C 123.894531 309.796875 121.492188 308.898438 113.941406 307.128906 C 110.214844 306.257812 112.207031 305.203125 116.683594 298.859375 C 129.261719 281.0625 145.789062 232.535156 151.324219 219.242188 C 156.355469 207.164062 161.1875 189.25 184.097656 165.460938 C 184.738281 164.792969 185.34375 164.0625 186.503906 163.824219 C 186.378906 165.121094 185.921875 166.214844 185.339844 167.222656 C 177.527344 180.730469 169.140625 206.363281 170.085938 206.253906 C 171.921875 206.035156 176.246094 186.0625 186.492188 167.539062 C 186.988281 166.652344 187.59375 165.808594 187.816406 164.785156 C 187.855469 164.609375 188.472656 164.179688 188.648438 164.964844 C 189.433594 168.410156 185.386719 168.851562 180.222656 184.15625 C 177.929688 190.945312 175.421875 197.671875 174.132812 204.773438 C 173.140625 210.238281 170.859375 215.402344 171.394531 216.410156 Z M 110.082031 304.785156 C 109.730469 305.300781 109.289062 305.398438 108.765625 305.292969 C 106.675781 304.878906 104.601562 304.460938 102.628906 303.558594 C 100.691406 302.671875 89.289062 296.488281 87.605469 295.320312 C 84.511719 293.175781 84.574219 293.0625 86.457031 291.347656 C 89.421875 288.652344 93.59375 280.386719 96.3125 276.460938 C 101.140625 269.46875 109.015625 252.621094 112.214844 244.703125 C 117.761719 230.980469 117.273438 231.011719 129.472656 212.289062 C 134.613281 204.394531 138.796875 206.398438 151.019531 195.800781 C 154.363281 192.894531 157.558594 189.804688 161.105469 187.128906 C 164.042969 184.917969 165.03125 183.195312 166.039062 183.28125 C 165.113281 188.71875 161.34375 183.078125 140.824219 240.949219 C 140.5625 241.695312 123.710938 284.332031 116.023438 296.789062 C 114.269531 299.636719 111.957031 302.042969 110.082031 304.785156 Z M 83.382812 291.453125 C 80.574219 289.214844 77.789062 285.839844 76.503906 284.554688 C 73.390625 281.441406 70.929688 277.910156 69.398438 273.742188 C 68.453125 271.179688 67.042969 268.820312 65.804688 266.390625 C 64.558594 263.941406 64.589844 263.796875 66.734375 262.214844 C 69.273438 260.34375 71.621094 258.21875 74.3125 256.550781 C 79.082031 253.59375 78.796875 253.324219 82.378906 249.207031 C 85.320312 245.832031 85.097656 246.578125 86.539062 244.699219 C 92.476562 236.953125 95.382812 231.414062 97.691406 228.484375 C 99.335938 226.40625 100.839844 224.230469 102.335938 222.050781 C 104.910156 218.304688 107.320312 219.640625 114.519531 216.175781 C 116.640625 215.160156 117.507812 215.558594 125.679688 211.722656 C 125.804688 211.667969 126.753906 211.285156 126.867188 211.480469 C 126.949219 211.609375 127.078125 211.816406 127.03125 211.902344 C 124.769531 215.835938 116.058594 228.648438 114.132812 233.953125 C 112.699219 237.882812 110.765625 241.597656 109.421875 245.570312 C 106.800781 253.335938 89.53125 287.03125 83.382812 291.453125 Z M 63.902344 261.503906 C 63.03125 261.066406 63.320312 260.246094 62.296875 256.699219 C 60.398438 250.144531 62.058594 251.011719 61.445312 247.105469 C 60.890625 243.613281 61.496094 240.125 61.460938 236.632812 C 61.433594 233.753906 62.785156 231.191406 63.847656 228.585938 C 63.972656 228.265625 64.152344 227.921875 64.511719 227.871094 C 65.519531 227.722656 66.128906 227.011719 66.835938 226.398438 C 67.730469 225.617188 72.003906 224.527344 74.179688 224.378906 C 80.898438 223.933594 85.972656 224.804688 93.464844 222.597656 C 95.019531 222.144531 96.59375 221.742188 98.171875 221.375 C 98.808594 221.230469 99.46875 220.972656 100.292969 221.375 C 98.449219 224.171875 95.542969 227.976562 94.855469 228.757812 C 92.53125 231.398438 83.589844 248.546875 72.175781 255.691406 C 68.90625 257.734375 68.679688 259.203125 63.902344 261.503906 Z M 69.882812 219.136719 C 70.914062 217.839844 72.664062 217.558594 73.78125 216.347656 C 74.414062 215.660156 76.132812 216.753906 87.292969 212.570312 C 94.453125 209.886719 140.617188 177.550781 150.917969 172.144531 C 151.21875 171.984375 151.558594 171.929688 151.980469 172.28125 C 128.265625 188.683594 139.953125 180.691406 130.984375 186.953125 C 128.878906 188.417969 129.085938 189.71875 129.4375 189.742188 C 130.636719 189.828125 129.839844 188.339844 134.4375 185.9375 C 140.445312 182.792969 157.605469 169.394531 166.988281 166.214844 C 170.355469 165.074219 172.945312 163.265625 174.519531 163.710938 C 172.171875 166.726562 166.882812 167.183594 156.445312 174.792969 C 156.199219 174.96875 155.453125 175.90625 155.644531 176.003906 C 156.117188 176.242188 155.9375 176.277344 157.160156 175.46875 C 158.519531 174.574219 167.488281 168.769531 168.871094 169.640625 C 168.507812 170.402344 167.683594 170.597656 167.128906 171.105469 C 160.683594 177.035156 151.675781 182.46875 152.910156 183.105469 C 153.214844 183.265625 153.460938 182.761719 154.601562 182.085938 C 163.125 177.050781 162.003906 177.703125 162.578125 177.703125 C 162.578125 178.695312 154.210938 185.804688 153.421875 186.480469 C 148.441406 190.773438 142.972656 192.742188 140.058594 196.320312 C 139.859375 196.570312 139.542969 196.882812 139.953125 197.167969 C 140.078125 197.253906 140.464844 197.136719 140.605469 196.992188 C 143.277344 194.328125 144.171875 194.59375 148.996094 191.648438 C 150.316406 190.847656 151.585938 189.96875 152.828125 189.046875 C 159.003906 184.449219 164.429688 178.910156 169.804688 173.421875 C 171.855469 171.328125 173.882812 169.195312 176.046875 167.203125 C 176.710938 166.589844 177.398438 165.953125 178.164062 165.453125 C 178.292969 165.367188 178.859375 164.921875 179.019531 164.96875 C 179.507812 165.105469 178.625 165.863281 178.4375 166.0625 C 178.09375 166.425781 177.75 166.78125 177.40625 167.144531 C 176.785156 167.800781 176.167969 168.460938 175.550781 169.121094 C 174.636719 170.105469 173.726562 171.09375 172.828125 172.09375 C 170.953125 174.171875 169.140625 176.300781 167.121094 178.246094 C 162.636719 182.570312 157.855469 186.597656 153.171875 190.691406 C 150.582031 192.960938 146.273438 197.785156 133.246094 204.972656 C 131.347656 206.019531 126.785156 208.957031 123.605469 210.261719 C 106.882812 217.09375 104.59375 217.800781 102.050781 218.25 C 93.558594 219.761719 91.246094 222.183594 81.746094 222.015625 C 78.671875 221.960938 75.621094 222.300781 72.554688 222.359375 C 71.070312 222.390625 67.820312 224.296875 67.210938 223.5 C 66.710938 222.851562 67.214844 222.496094 69.882812 219.136719 Z M 66 212.929688 C 65.214844 213.417969 64.472656 213.4375 63.59375 213.046875 C 50.1875 207.148438 51.210938 199.707031 40.644531 192.75 C 40.007812 192.324219 39.378906 191.886719 38.761719 191.429688 C 38.46875 191.21875 38.585938 190.761719 38.9375 190.617188 C 40.480469 189.957031 42.628906 190.335938 49.253906 184.234375 C 66.339844 168.511719 80.175781 150.238281 90.050781 141.453125 C 92.503906 139.269531 95.273438 135.800781 98.726562 132.742188 C 112.527344 120.523438 112.882812 120.398438 114.492188 119.699219 C 115.523438 119.253906 114.464844 118.09375 118.101562 118.726562 C 127.84375 120.433594 121.011719 118.371094 143.824219 124.433594 C 144.808594 124.695312 145.761719 125.089844 146.71875 125.457031 C 146.824219 125.496094 146.863281 125.71875 146.953125 125.902344 C 146.160156 126.796875 140.777344 130.320312 140.109375 130.75 C 129.515625 137.578125 113.503906 159.96875 107.542969 167.382812 C 72.339844 211.179688 75.347656 207.074219 66 212.929688 Z M 36.03125 189.445312 C 33.894531 190.429688 25.347656 177.703125 23.523438 171.132812 C 21.792969 164.882812 18.15625 159.203125 18.214844 158.449219 C 19.574219 156.710938 20.054688 161.046875 38.894531 145.652344 C 42.339844 142.84375 44.25 140.816406 49.363281 137.453125 C 51.019531 136.367188 48.386719 138.085938 58.402344 130.738281 C 67.089844 124.371094 66.683594 124.699219 69.421875 122.015625 C 72.371094 119.128906 75.894531 116.996094 79.148438 114.503906 C 80.273438 113.644531 81.695312 113.574219 82.902344 112.925781 C 83.355469 112.679688 86.113281 113.621094 86.34375 113.699219 C 91.6875 115.535156 96.652344 115.996094 110.78125 117.9375 C 114.164062 118.398438 102.246094 123.625 75.433594 153.300781 C 57.578125 173.070312 70.378906 159.730469 48.382812 182.007812 C 46.386719 184.027344 44.109375 185.675781 41.75 187.222656 C 40 188.363281 37.894531 188.585938 36.03125 189.445312 Z M 15.109375 154.839844 C 10.945312 147.230469 8.230469 140.59375 8.164062 131.335938 C 8.097656 121.980469 4.769531 120.078125 7.234375 119.855469 C 9.558594 119.644531 10.210938 120.882812 21.601562 117.820312 C 32.390625 114.917969 47.664062 107.207031 59.273438 101.347656 C 68 96.9375 67.554688 96.320312 68.238281 98.992188 C 70.863281 109.238281 81.199219 110.441406 79.125 111.628906 C 76.449219 113.164062 74.125 115.203125 71.617188 116.972656 C 67.832031 119.652344 67.277344 121.464844 63.28125 124.128906 C 62.203125 124.84375 52.441406 132.515625 46.265625 136.839844 C 34.765625 144.898438 27.070312 154.238281 17.605469 156.050781 C 16.492188 156.265625 15.714844 155.953125 15.109375 154.839844 Z M 4.660156 115.851562 C 3.660156 113.015625 2.976562 110.128906 2.617188 107.152344 C 2.53125 106.421875 2.761719 105.796875 3.113281 105.207031 C 4.777344 102.425781 2.488281 102.21875 6.832031 96.675781 C 19.628906 80.332031 52.257812 79.910156 73.066406 80.992188 C 73.191406 81 73.308594 81.199219 73.554688 81.414062 C 71.835938 83.292969 68.351562 84.875 67.6875 91.089844 C 67.433594 93.480469 68.085938 94.464844 66.019531 95.511719 C 52.394531 102.390625 60.34375 98.9375 32.390625 111.816406 C 28.402344 113.65625 21.6875 115.941406 14.078125 117.414062 C 11.699219 117.878906 9.316406 117.726562 6.929688 117.535156 C 5.832031 117.445312 5.078125 117.035156 4.660156 115.851562 Z M 4.46875 91.816406 C 6.011719 90.148438 8.34375 83.878906 19.035156 80.9375 C 27.746094 78.53125 25.414062 80.128906 33.628906 78.515625 C 38.835938 77.496094 59.554688 77.28125 61.679688 77.820312 C 57.21875 79.546875 16.554688 76.144531 3.167969 97.421875 C 3.089844 97.542969 2.917969 97.613281 2.484375 97.941406 C 2.429688 95.46875 2.886719 93.523438 4.46875 91.816406 Z M 84.410156 82.160156 C 100.746094 85.859375 88.976562 82.785156 108.355469 89.445312 C 117.0625 92.433594 120.5625 93.074219 124.632812 95.523438 C 126.316406 96.535156 127.4375 96.15625 129.445312 97.175781 C 146.890625 106.042969 151.761719 109.800781 152.863281 110.347656 C 155.164062 111.480469 157.292969 113.050781 159.382812 114.519531 C 163.101562 117.128906 166.742188 119.871094 170.246094 122.761719 C 171.710938 123.964844 173.15625 125.195312 174.515625 126.519531 C 174.875 126.871094 176.234375 127.925781 175.273438 128.175781 C 174.546875 128.367188 173.308594 126.980469 172.78125 126.601562 C 171.40625 125.59375 170.039062 124.558594 168.667969 123.542969 C 159.75 116.949219 150.410156 110.957031 140.402344 106.140625 C 137.179688 104.59375 133.859375 103.246094 130.578125 101.8125 C 130.53125 101.792969 130.433594 101.882812 130.324219 101.941406 C 131.898438 103.882812 132.746094 103.859375 143.1875 109.042969 C 145.515625 110.199219 147.828125 111.417969 150.019531 112.816406 C 150.453125 113.097656 151.03125 113.367188 151.402344 113.726562 C 152.140625 114.433594 151.492188 114.539062 150.675781 114.226562 C 150.226562 114.050781 147.308594 112.78125 147.398438 113.738281 C 147.457031 114.34375 148.847656 114.570312 149.28125 114.75 C 153.152344 116.378906 156.628906 118.703125 160.210938 120.847656 C 161.277344 121.484375 162.890625 122.125 163.753906 123.042969 C 164.640625 123.992188 163.628906 123.800781 162.914062 123.417969 C 162.328125 123.101562 161.726562 122.816406 161.136719 122.523438 C 160.082031 122.003906 159.015625 121.488281 157.949219 121 C 156.3125 120.253906 154.648438 119.515625 152.933594 118.988281 C 152.390625 118.824219 151.289062 118.359375 150.707031 118.589844 C 150.460938 118.679688 149.867188 119.074219 150.40625 119.34375 C 157.101562 122.65625 160.5 123.507812 162.144531 124.953125 C 162.90625 125.628906 179.972656 135.097656 180.148438 136.921875 C 179.324219 137.410156 178.652344 136.941406 178.042969 136.503906 C 167.5625 128.996094 142.078125 120.265625 125.953125 117.390625 C 104.65625 113.585938 91.253906 115.15625 77.203125 107.121094 C 71.894531 104.085938 70.304688 100.449219 69.761719 95.867188 C 69.09375 90.179688 70.992188 84.972656 76.460938 83.265625 C 79.753906 82.238281 81.226562 81.4375 84.410156 82.160156 Z M 142.664062 171.675781 C 138.558594 176.585938 140.890625 175.300781 137.945312 177.300781 C 137.535156 177.578125 112.828125 194.117188 90.894531 207.820312 C 83.464844 212.460938 69.746094 215.234375 70.335938 213.050781 C 70.460938 212.570312 70.574219 212.664062 72.3125 211.554688 C 84.015625 204.109375 126.65625 142.964844 139.164062 134.3125 C 141.539062 132.671875 143.882812 130.945312 146.316406 129.394531 C 147.871094 128.40625 149.460938 126.9375 151.421875 127.152344 C 152.140625 127.226562 152.925781 127.585938 153.605469 127.820312 C 155.871094 128.582031 158.113281 129.425781 160.339844 130.296875 C 161.101562 130.59375 170.949219 134.886719 170.253906 135.488281 C 161.972656 142.640625 150.113281 162.777344 142.664062 171.675781 Z M 166.609375 164.300781 C 166.46875 164.863281 165.859375 164.808594 165.496094 165.082031 C 165.421875 165.140625 165.226562 165.039062 165.085938 165.011719 C 165.148438 164.890625 165.175781 164.726562 165.277344 164.644531 C 165.664062 164.324219 166.117188 164.222656 166.609375 164.300781 Z M 174.554688 161.261719 C 172.839844 161.984375 171.128906 162.714844 169.410156 163.433594 C 168.90625 163.648438 168.054688 164.203125 167.480469 164.183594 C 167.339844 164.179688 167.15625 164.101562 167.085938 163.980469 C 166.894531 163.648438 168.125 163.238281 168.375 163.113281 C 168.988281 162.804688 169.605469 162.503906 170.230469 162.21875 C 171.472656 161.648438 172.75 161.132812 174.066406 160.730469 C 174.25 160.675781 174.84375 160.550781 174.941406 160.808594 C 174.949219 160.824219 174.953125 160.84375 174.957031 160.859375 C 174.976562 161.023438 174.675781 161.214844 174.554688 161.261719 Z M 178.847656 159.753906 C 178.34375 160.035156 177.820312 160.277344 177.265625 160.4375 C 176.941406 160.53125 175.859375 160.894531 175.652344 160.492188 C 175.496094 160.191406 177.257812 159.582031 177.4375 159.511719 C 177.816406 159.367188 178.261719 159.125 178.667969 159.070312 C 179.152344 159 179.25 159.527344 178.847656 159.753906 Z M 149.984375 169.464844 C 148.050781 170.480469 147.128906 171.640625 146.476562 171.3125 C 145.828125 170.988281 147.519531 169.90625 149.492188 166.535156 C 151.976562 162.292969 156.207031 156.910156 156.21875 156.898438 C 159.214844 152.851562 159.21875 151.890625 161.777344 148.964844 C 163.601562 146.871094 165.097656 144.519531 166.894531 142.402344 C 168.015625 141.082031 169.335938 139.96875 170.492188 138.695312 C 171.269531 137.828125 172.152344 136.214844 173.570312 136.535156 C 174.792969 136.8125 176.480469 138.5 177.582031 139.199219 C 179.488281 140.417969 181.484375 141.589844 183.257812 143.003906 C 185.105469 144.480469 185.296875 145.757812 185.621094 147.988281 C 185.660156 149.753906 185.617188 149.886719 184.359375 150.3125 C 171.910156 154.523438 160.257812 164.035156 149.984375 169.464844 Z M 123.878906 90.800781 C 128.792969 92.289062 133.394531 94.566406 138.144531 96.464844 C 146.261719 99.703125 159.746094 107.332031 170.523438 116.820312 C 185.171875 129.714844 187.292969 131.941406 188.242188 134.726562 C 188.363281 135.097656 188.691406 135.570312 188.195312 135.859375 C 183.933594 138.359375 186.484375 124.566406 133.65625 96.957031 C 129.871094 94.980469 122.648438 91.578125 116.003906 89.496094 C 105.933594 86.34375 111.738281 87.894531 103.261719 85.042969 C 112.480469 85.6875 117.039062 88.726562 123.878906 90.800781 Z M 394.617188 86.621094 C 394.601562 85.308594 395.304688 79.273438 394.753906 73.316406 C 394.289062 68.320312 392.226562 67.144531 389.113281 62.644531 C 387.074219 59.699219 384.4375 57.449219 381.316406 55.75 C 379.523438 54.769531 377.863281 53.519531 375.871094 52.925781 C 372.253906 51.84375 368.554688 51.082031 364.796875 51 C 360.1875 50.902344 355.570312 50.789062 350.957031 51.105469 C 345.710938 51.460938 339.058594 50.4375 328.78125 52.75 C 322.628906 54.140625 316.390625 55.246094 310.457031 57.519531 C 307.03125 58.835938 303.40625 59.570312 300.070312 61.140625 C 293.144531 64.398438 294.707031 62.742188 286.300781 67.285156 C 277.289062 72.152344 263.148438 80.003906 255.410156 86.851562 C 254.121094 87.992188 252.460938 88.574219 251.21875 89.738281 C 247.480469 93.238281 243.125 96.011719 239.492188 99.636719 C 238.242188 100.882812 225.957031 109.242188 222.910156 114.746094 C 222.277344 115.886719 217.207031 121.40625 214.523438 126.671875 C 213.675781 128.34375 212.589844 129.894531 211.582031 131.480469 C 211.320312 131.886719 211.085938 132.414062 210.355469 132.3125 C 208.558594 128.011719 208.113281 127.511719 208.753906 126.648438 C 211.507812 122.953125 208.722656 119.328125 211.394531 116.808594 C 211.984375 116.253906 212.226562 113.792969 210.542969 112.488281 C 208.160156 110.644531 206.578125 111.613281 205.230469 111.910156 C 204.734375 112.023438 204.359375 111.761719 204.363281 111.273438 C 204.382812 108.886719 204.027344 106.519531 204.320312 104.128906 C 205.953125 90.660156 206.191406 85.199219 207.636719 80.824219 C 208.785156 77.371094 208.152344 77.023438 211.027344 64.007812 C 212.949219 55.332031 216.359375 46.65625 220.980469 39.070312 C 223.574219 34.804688 228.402344 27.015625 233.34375 25.195312 C 235.015625 24.578125 237.433594 25.902344 238.75 25.085938 C 241.105469 23.617188 239.664062 20.453125 237.339844 19.992188 C 233.871094 19.3125 231.277344 24.230469 228.792969 26.003906 C 225.410156 28.417969 222.859375 31.667969 220.625 35.152344 C 220.617188 35.167969 220.609375 35.179688 220.597656 35.195312 C 209.15625 53.054688 205.402344 76.585938 202.484375 97.949219 C 200.988281 108.941406 202.738281 110.902344 201.699219 112.023438 C 196.785156 112.023438 199.503906 113.550781 196.035156 95.109375 C 195.453125 92.007812 194.558594 88.980469 194.144531 85.835938 C 192.027344 69.90625 189.863281 65.136719 188.75 61.113281 C 182.480469 38.328125 175.988281 34.683594 171.214844 30.726562 C 168.550781 28.519531 165.574219 26.921875 162.335938 25.714844 C 160.917969 25.179688 159.503906 25.152344 158.058594 25.167969 C 157.015625 25.179688 156.585938 25.691406 156.449219 26.777344 C 156.355469 27.488281 156.445312 28.140625 156.976562 28.671875 C 157.886719 29.582031 160.347656 32.816406 162.503906 29.59375 C 163.1875 28.570312 163.191406 28.5625 164.289062 29.066406 C 167.683594 30.601562 170.507812 32.957031 173.238281 35.417969 C 177.394531 39.160156 180.015625 43.960938 182.25 48.980469 C 186.105469 57.625 190.050781 73.707031 191.328125 83.054688 C 192.625 92.582031 193.867188 91.632812 196.152344 112.546875 C 194.511719 112.699219 193.640625 110.816406 190.011719 113.40625 C 189.1875 113.996094 188.847656 114.859375 188.816406 115.847656 C 188.71875 119.117188 191.128906 118.289062 190.480469 121.472656 C 189.910156 124.289062 191.660156 125.820312 193.40625 127.765625 C 191.96875 129.328125 191.59375 131.402344 190.570312 133.140625 C 188.660156 132.28125 190.597656 131.878906 183.035156 125.117188 C 162.085938 106.394531 161.082031 106.3125 144.734375 97.054688 C 137.097656 92.730469 112.578125 84.320312 112.121094 84.203125 C 96.9375 80.226562 62.914062 74.847656 55.84375 75.085938 C 38.425781 75.660156 39.425781 75.316406 35.640625 75.828125 C 33.1875 76.160156 30.753906 76.578125 28.269531 76.730469 C 25.980469 76.875 23.746094 77.605469 21.417969 77.523438 C 21.195312 77.515625 13.101562 79.664062 9.222656 82.675781 C 4.0625 86.679688 0.00390625 91.503906 0 98.898438 C 0 100.707031 0.28125 109.671875 0.820312 111.398438 C 4.597656 123.417969 6.097656 127.003906 6.0625 131.902344 C 6.007812 140.089844 7.921875 146.097656 10.753906 151.910156 C 15.886719 162.453125 16.96875 160.410156 18.539062 164.183594 C 22.335938 173.304688 21.0625 171.390625 21.785156 173.066406 C 24.800781 180.078125 29.75 189.644531 36.535156 193.121094 C 44.863281 197.398438 45.824219 201.820312 53.183594 209.183594 C 60.035156 216.042969 66.910156 216.425781 67.707031 216.699219 C 68.6875 217.023438 67.816406 217.953125 67.058594 218.945312 C 63.175781 224.042969 58.75 231.839844 58.898438 237.921875 C 58.953125 240.308594 58.96875 242.734375 58.640625 245.085938 C 58.265625 247.785156 58.917969 250.351562 59.101562 252.972656 C 60.976562 257.382812 61.136719 263.003906 61.917969 264.113281 C 62.863281 265.445312 63.410156 266.992188 64.265625 268.363281 C 65.6875 270.628906 66.652344 273.082031 67.578125 275.5625 C 70.132812 282.449219 74.929688 285.894531 77.449219 289.125 C 79.03125 291.144531 81.375 292.457031 82.539062 294.832031 C 82.574219 294.898438 82.648438 294.972656 82.726562 295.003906 C 84.292969 295.570312 85.265625 297.003906 86.71875 297.75 C 89.976562 299.433594 99.804688 305.203125 102.082031 305.886719 C 105.101562 306.796875 108.148438 307.636719 111.109375 308.707031 C 114.339844 309.878906 117.714844 310.464844 121.007812 311.355469 C 126.683594 312.894531 134.464844 309.378906 139.257812 305.625 C 140.203125 304.890625 149.59375 296.136719 154.09375 286.230469 C 159.722656 273.84375 156.035156 283.238281 163.066406 265.308594 C 163.070312 265.296875 167.09375 255.730469 167.683594 252.875 C 167.996094 251.367188 170.839844 243.398438 171.878906 238.097656 C 172.285156 236.027344 172.894531 233.980469 173.421875 231.941406 C 174.566406 227.503906 175.742188 223.074219 176.929688 218.648438 C 178.410156 213.136719 179.917969 207.628906 181.46875 202.136719 C 182.960938 196.847656 184.488281 191.570312 186.117188 186.320312 C 187.28125 182.554688 188.445312 178.757812 189.941406 175.109375 C 190.167969 174.566406 190.398438 174.019531 190.660156 173.492188 C 190.792969 173.222656 191.390625 171.925781 191.660156 172.601562 C 191.8125 172.992188 191.492188 173.5625 191.402344 173.949219 C 187.535156 190.71875 189.839844 195.367188 190.21875 201.59375 C 190.722656 209.722656 192.101562 210.128906 193.375 216.023438 C 193.925781 218.589844 195.769531 221.757812 197.441406 225.101562 C 199.257812 228.734375 202.714844 228.5625 204.140625 227.074219 C 205.96875 225.160156 207.671875 223.140625 208.398438 220.480469 C 209.25 217.355469 210.246094 214.265625 210.542969 211.015625 C 211.328125 202.402344 212.054688 187.601562 210.398438 181.445312 C 209.363281 177.582031 208.804688 173.582031 207.222656 169.867188 C 206.984375 169.304688 207.136719 168.945312 207.242188 168.777344 C 209.058594 169.804688 218.074219 188.707031 225.183594 209.96875 C 227.019531 215.464844 227.6875 216.996094 233.273438 230.992188 C 234.039062 232.921875 233.667969 232.4375 239.148438 242.640625 C 246.777344 256.832031 247.652344 259.324219 255.105469 268.214844 C 263.917969 278.738281 281.105469 294.171875 291.929688 298.328125 C 295.027344 299.515625 304.679688 301.457031 307.785156 300.789062 C 317.671875 298.65625 316.195312 298.804688 327.265625 288.175781 C 334.246094 281.472656 338.503906 273.820312 346.789062 258.601562 C 349.753906 253.160156 351.160156 245.265625 351.585938 238.816406 C 352.074219 231.457031 350.867188 226.449219 348.625 218.917969 C 345.796875 209.414062 343.863281 210.996094 344.347656 209.394531 C 349.640625 207.621094 354.632812 205.207031 360.722656 197.449219 C 368.832031 187.121094 365.363281 186.671875 376.0625 170.925781 C 377.960938 168.132812 380.984375 159.929688 381.570312 158.042969 C 384.386719 149.007812 382.46875 154.515625 385.0625 142.34375 C 388.054688 128.269531 396.09375 126.285156 393.46875 99.59375 C 393.273438 97.625 394.703125 93.394531 394.617188 86.621094 " fill-opacity="1" fill-rule="nonzero"/></g><path fill="#ffffff" d="M 150.433594 130.789062 C 151.070312 130.097656 150.488281 129.917969 149.945312 129.945312 C 149.792969 129.953125 149.652344 129.976562 149.53125 130.007812 C 148.609375 130.269531 147.710938 131.375 146.816406 131.808594 C 144.554688 132.90625 141.476562 135.878906 140.53125 137.359375 C 139.90625 138.34375 139.773438 139.386719 140.203125 139.417969 C 141.042969 139.480469 141.300781 138.734375 141.703125 138.207031 C 145.277344 133.472656 148.792969 132.585938 150.433594 130.789062 " fill-opacity="1" fill-rule="nonzero"/><path fill="#ffffff" d="M 110.558594 156.671875 C 109.808594 157.429688 108.15625 159.566406 107.945312 160.703125 C 107.828125 161.304688 108.632812 161.898438 109.058594 161.171875 C 111.179688 157.550781 114.207031 155.292969 115.425781 153.507812 C 119.636719 147.355469 129.546875 136.445312 137.304688 131.394531 C 137.871094 131.027344 138.363281 130.542969 138.863281 130.082031 C 139.191406 129.785156 139.011719 127.921875 135.960938 130.128906 C 121.808594 140.386719 114.644531 152.574219 110.558594 156.671875 " fill-opacity="1" fill-rule="nonzero"/><path fill="#ffffff" d="M 120.207031 139.371094 C 120 139.664062 119.820312 140.296875 120.125 140.507812 C 120.433594 140.726562 120.585938 140.546875 123.488281 138.003906 C 130.710938 131.675781 136.84375 128.539062 137.800781 126.722656 C 137.875 126.28125 137.300781 125.695312 136.996094 125.792969 C 136.425781 125.972656 136.605469 125.746094 131.0625 129.753906 C 124.242188 134.679688 123 135.390625 120.207031 139.371094 " fill-opacity="1" fill-rule="nonzero"/><path fill="#ffffff" d="M 79.765625 188.632812 C 79.960938 188.402344 80.277344 188.175781 80.101562 187.773438 C 79.179688 187.367188 74.015625 193.46875 71.046875 196.554688 C 64.488281 203.382812 62.78125 203.835938 60.386719 205.695312 C 59.570312 206.332031 60.472656 207.417969 61.210938 206.875 C 68.804688 201.363281 69.839844 200.34375 79.765625 188.632812 " fill-opacity="1" fill-rule="nonzero"/><path fill="#ffffff" d="M 88.234375 187.003906 C 89.429688 186.304688 90.351562 185.320312 91.179688 184.226562 C 102.226562 169.652344 102.378906 169.851562 102.632812 168.359375 C 101.53125 166.253906 92.785156 181.054688 87.523438 185.792969 C 86.886719 186.371094 87.613281 187.371094 88.234375 187.003906 " fill-opacity="1" fill-rule="nonzero"/><path fill="#ffffff" d="M 54.847656 183.683594 C 60.925781 177.832031 62.667969 176.707031 61.253906 176.675781 C 59.824219 176.644531 54.304688 182.351562 53.351562 183.414062 C 51.582031 185.390625 49.800781 187.316406 47.46875 188.683594 C 46.003906 189.542969 44.722656 190.710938 43.078125 191.28125 C 42.761719 191.390625 42.511719 191.726562 42.6875 192.105469 C 42.777344 192.300781 43.039062 192.417969 43.148438 192.507812 C 44.667969 192.765625 45.859375 191.027344 47.914062 190.035156 C 51.160156 188.460938 53.449219 185.03125 54.847656 183.683594 " fill-opacity="1" fill-rule="nonzero"/><path fill="#ffffff" d="M 101.117188 135.550781 C 115.894531 123.320312 105.53125 132.292969 115.109375 123.242188 C 115.753906 122.632812 114.816406 121.816406 114.183594 122.207031 C 113.519531 122.621094 101.574219 133.207031 98.621094 136.933594 C 98.382812 137.238281 98.082031 137.601562 98.417969 138.226562 C 98.492188 138.152344 101.039062 135.617188 101.117188 135.550781 " fill-opacity="1" fill-rule="nonzero"/><path fill="#ffffff" d="M 80.222656 194.535156 C 80.171875 194.46875 79.910156 194.472656 79.824219 194.542969 C 74.894531 198.363281 72.535156 203.472656 67.1875 206.371094 C 66.507812 206.738281 63.40625 208.527344 62.777344 209.371094 C 62.675781 209.511719 62.765625 209.847656 62.851562 210.058594 C 62.921875 210.234375 63.460938 210.421875 63.75 210.261719 C 67.242188 208.289062 70.746094 206.367188 73.367188 203.1875 C 78.722656 196.679688 80.777344 195.261719 80.222656 194.535156 " fill-opacity="1" fill-rule="nonzero"/><path fill="#ffffff" d="M 71.800781 191.808594 C 72.300781 191.195312 71.621094 190.878906 71.152344 191.296875 C 66.257812 195.679688 69.597656 193.382812 60.878906 200.871094 C 56.867188 204.316406 55.820312 203.722656 56.089844 205.035156 C 56.492188 206.980469 65.125 199.972656 71.800781 191.808594 " fill-opacity="1" fill-rule="nonzero"/><path fill="#ffffff" d="M 66.851562 190.347656 C 65.773438 189.128906 61.773438 197.019531 54.9375 200.515625 C 54.253906 200.871094 53.507812 201.292969 53.796875 201.957031 C 53.949219 202.300781 54.324219 202.386719 54.660156 202.246094 C 55.992188 201.679688 57.292969 201.011719 58.390625 200.078125 C 62.5 196.574219 66.269531 191.695312 66.851562 190.347656 " fill-opacity="1" fill-rule="nonzero"/><path fill="#ffffff" d="M 111.066406 130.523438 C 112.3125 130.539062 114.785156 127.574219 119.40625 124.386719 C 120.128906 123.882812 119.621094 123.128906 118.78125 123.097656 C 117.289062 123.042969 112.480469 127.917969 111.132812 129.25 C 110.367188 130 110.957031 130.386719 111.066406 130.523438 " fill-opacity="1" fill-rule="nonzero"/><path fill="#ffffff" d="M 61.828125 189.734375 C 62.003906 189.515625 61.503906 189.28125 61.386719 189.335938 C 59.015625 190.390625 56.261719 196.320312 52.21875 197.984375 C 52.085938 198.035156 52.015625 198.242188 51.925781 198.378906 C 51.769531 198.609375 52.039062 199.140625 52.632812 199.207031 C 55.691406 198.589844 59.277344 192.972656 61.828125 189.734375 " fill-opacity="1" fill-rule="nonzero"/><path fill="#ffffff" d="M 124.542969 129.042969 C 124.363281 129.222656 123.816406 129.96875 124.105469 130.371094 C 124.378906 130.753906 125.242188 130.394531 125.46875 130.234375 C 133.472656 124.398438 131.71875 126.144531 132.261719 125.113281 C 132.144531 124.714844 131.960938 124.398438 131.597656 124.359375 C 129.863281 124.1875 125.78125 127.757812 124.542969 129.042969 " fill-opacity="1" fill-rule="nonzero"/><path fill="#ffffff" d="M 118.175781 130.207031 C 118.992188 129.664062 119.882812 129.175781 120.644531 128.535156 C 122.070312 127.335938 123.371094 125.996094 125.085938 125.179688 C 126.023438 124.734375 125.488281 123.445312 124.335938 123.765625 C 122.207031 124.355469 117.851562 128.433594 117.808594 129.78125 C 117.804688 129.890625 117.996094 130.003906 118.175781 130.207031 " fill-opacity="1" fill-rule="nonzero"/><path fill="#ffffff" d="M 53.832031 188.796875 C 53.917969 188.679688 53.890625 188.480469 53.914062 188.320312 C 53.820312 188.132812 53.664062 188.046875 53.492188 188.152344 C 53.066406 188.417969 52.601562 188.65625 52.253906 189.003906 C 49.109375 192.128906 47.078125 192.6875 46.226562 193.628906 C 45.777344 194.128906 46.292969 194.984375 46.925781 194.660156 C 49.6875 193.246094 51.980469 191.277344 53.832031 188.796875 " fill-opacity="1" fill-rule="nonzero"/><path fill="#ffffff" d="M 55.539062 191.984375 C 55.621094 191.871094 55.566406 191.660156 55.570312 191.496094 C 55.429688 191.421875 55.230469 191.246094 55.152344 191.285156 C 54.792969 191.496094 54.394531 191.699219 54.144531 192.011719 C 51.574219 195.257812 49.703125 195.261719 49.296875 195.609375 C 48.691406 196.128906 49.324219 196.953125 49.800781 196.808594 C 52.410156 196.042969 54.082031 194.132812 55.539062 191.984375 " fill-opacity="1" fill-rule="nonzero"/><path fill="#ffffff" d="M 152.664062 273.917969 C 150.015625 279.855469 149.148438 279.460938 148.929688 281.164062 C 148.914062 281.292969 149.1875 281.476562 149.285156 281.390625 C 156.652344 275.144531 169.707031 229.257812 170.304688 225.984375 C 168.800781 220.082031 166.597656 242.710938 152.664062 273.917969 " fill-opacity="1" fill-rule="nonzero"/><path fill="#ffffff" d="M 143.585938 288.046875 C 143.433594 288.046875 143.195312 288.042969 143.148438 288.125 C 138.058594 297.195312 140.921875 293.753906 132.902344 302.285156 C 131.042969 304.261719 130.796875 303.957031 130.035156 304.78125 C 129.710938 305.128906 130.367188 305.671875 130.570312 305.628906 C 132.273438 305.285156 133.242188 303.777344 136.554688 300.597656 C 141.363281 295.976562 144.480469 288.050781 143.585938 288.046875 " fill-opacity="1" fill-rule="nonzero"/><path fill="#ffffff" d="M 132.0625 297.402344 C 130.8125 297.675781 128.402344 302.949219 124.449219 306.199219 C 124.21875 306.386719 124.1875 306.976562 124.265625 307.121094 C 124.425781 307.417969 124.773438 307.609375 125.128906 307.503906 C 126.863281 306.984375 133.160156 298.84375 132.0625 297.402344 " fill-opacity="1" fill-rule="nonzero"/><path fill="#ffffff" d="M 178.683594 176.71875 C 179.25 175.640625 178.15625 175.253906 177.703125 176.148438 C 175.859375 179.78125 174.089844 184.511719 172.992188 188.46875 C 172.964844 188.558594 173.140625 188.710938 173.222656 188.832031 C 174.59375 188.207031 175.484375 182.832031 178.683594 176.71875 " fill-opacity="1" fill-rule="nonzero"/><path fill="#ffffff" d="M 120.847656 299.277344 C 116.796875 304.347656 116.691406 304.613281 116.269531 305.667969 C 116.195312 305.851562 116.570312 306.601562 117.035156 306.359375 C 118.652344 305.53125 121.65625 300.835938 122.757812 297.910156 C 121.816406 298.191406 121.292969 298.714844 120.847656 299.277344 " fill-opacity="1" fill-rule="nonzero"/><path fill="#ffffff" d="M 124.953125 301.488281 C 124.886719 301.414062 124.613281 301.40625 124.539062 301.480469 C 119.296875 306.378906 120.363281 306.488281 120.789062 307.097656 C 121.015625 307.078125 121.238281 307.121094 121.332031 307.035156 C 122.621094 305.824219 125.722656 302.296875 124.953125 301.488281 " fill-opacity="1" fill-rule="nonzero"/><path fill="#ffffff" d="M 170.621094 186.046875 C 171.722656 184.085938 172.496094 183.707031 172.132812 182.515625 C 172.117188 182.464844 172 182.394531 171.953125 182.410156 C 170.734375 182.851562 170.6875 184.070312 170.246094 185.023438 C 170.160156 185.222656 170.238281 185.496094 170.238281 185.738281 L 170.621094 186.046875 " fill-opacity="1" fill-rule="nonzero"/><path fill="#ffffff" d="M 139.488281 230.148438 C 139.464844 230.226562 139.648438 230.371094 139.738281 230.488281 C 142.195312 229.230469 148.601562 211.4375 148.609375 211.425781 C 152.777344 201.261719 155.886719 198.433594 155.257812 197.257812 C 154.367188 195.589844 147.375 210.703125 145.757812 215.640625 C 144.359375 219.921875 140.105469 227.941406 139.488281 230.148438 " fill-opacity="1" fill-rule="nonzero"/><path fill="#ffffff" d="M 116.660156 287.285156 C 114.359375 290.0625 113.386719 295.429688 107.339844 301.304688 C 106.136719 302.480469 107.503906 303.390625 108.066406 303.003906 C 109.40625 302.082031 112.953125 297.625 113.515625 296.34375 C 114.273438 294.59375 117.101562 288.371094 116.660156 287.285156 " fill-opacity="1" fill-rule="nonzero"/><path fill="#ffffff" d="M 139.015625 222.390625 C 139.496094 221.582031 142.054688 216.734375 142.9375 214.453125 C 144.140625 211.339844 145.816406 208.480469 147.242188 205.492188 C 147.507812 204.933594 148.269531 204.488281 147.820312 203.738281 C 147.378906 202.996094 146.039062 205.027344 145.675781 205.796875 C 137.386719 223.214844 137.902344 221.769531 139.015625 222.390625 " fill-opacity="1" fill-rule="nonzero"/><path fill="#ffffff" d="M 109.097656 291.582031 C 108.3125 291.828125 108.074219 292.421875 107.722656 292.886719 C 107.492188 293.179688 103.332031 298.59375 103.089844 299.007812 C 102.609375 299.800781 103.746094 300.679688 104.296875 299.84375 C 109.472656 291.972656 109.203125 292.410156 109.097656 291.582031 " fill-opacity="1" fill-rule="nonzero"/><path fill="#ffffff" d="M 142.207031 207.753906 C 141.21875 206.839844 141.316406 207.171875 137.816406 214.492188 C 137.679688 214.789062 137.601562 215.128906 137.550781 215.457031 C 137.535156 215.574219 137.6875 215.730469 137.789062 215.835938 C 138.398438 216.480469 141.988281 208.875 142.207031 207.753906 " fill-opacity="1" fill-rule="nonzero"/><path fill="#ffffff" d="M 103.464844 291.753906 C 103.320312 291.742188 103.09375 291.722656 103.03125 291.804688 C 99.484375 296.699219 99.671875 295.285156 99.464844 296.382812 C 99.421875 296.636719 99.871094 297.109375 100.109375 297.0625 C 101.871094 296.488281 104.085938 291.800781 103.464844 291.753906 " fill-opacity="1" fill-rule="nonzero"/><path fill="#ffffff" d="M 92.542969 287.570312 C 92.308594 287.546875 91.65625 288.238281 91.472656 288.394531 C 90.957031 288.8125 90.453125 289.25 90 289.734375 C 89.621094 290.152344 88.859375 290.90625 88.910156 291.550781 C 88.957031 292.105469 89.582031 292.621094 90.125 292.1875 C 91.011719 291.484375 91.40625 290.46875 91.921875 289.503906 C 92.082031 289.207031 92.972656 288.277344 92.898438 287.820312 C 92.875 287.691406 92.769531 287.597656 92.542969 287.570312 " fill-opacity="1" fill-rule="nonzero"/><path fill="#ffffff" d="M 94.75 295.191406 C 95.171875 294.800781 95.703125 294.441406 95.960938 293.945312 C 96.574219 292.777344 97.363281 291.679688 97.414062 290.085938 C 94.039062 293.832031 93.941406 293.832031 93.816406 294.496094 C 93.738281 294.886719 94.308594 295.597656 94.75 295.191406 " fill-opacity="1" fill-rule="nonzero"/><path fill="#ffffff" d="M 136.695312 208.621094 C 136.589844 208.539062 136.328125 208.511719 136.246094 208.585938 C 135.066406 209.636719 134.367188 210.921875 134.214844 212.464844 L 134.6875 212.726562 C 136.945312 208.925781 137.074219 208.902344 136.695312 208.621094 " fill-opacity="1" fill-rule="nonzero"/><path fill="#ffffff" d="M 84.296875 141.832031 C 86.15625 140.515625 80.96875 144.414062 96.839844 129.039062 C 100.984375 125.019531 101.058594 125.203125 105.667969 121.640625 C 106.863281 120.714844 105.847656 119.78125 104.820312 120.3125 C 99.453125 123.109375 85.546875 137.816406 85.515625 137.851562 C 84.144531 139.503906 82.664062 141.070312 81.0625 142.503906 C 80.070312 143.390625 79.289062 144.167969 78.625 145.097656 C 78.136719 145.78125 77.714844 146.546875 77.320312 147.492188 C 77.671875 147.527344 77.96875 147.253906 78.214844 147.003906 C 80.144531 145.027344 81.976562 143.316406 84.296875 141.832031 " fill-opacity="1" fill-rule="nonzero"/><path fill="#ffffff" d="M 61.527344 164.171875 C 61.78125 163.851562 62.070312 163.527344 61.953125 162.988281 C 59.191406 163.273438 50.464844 177.816406 37.238281 185.570312 C 35.589844 186.539062 36.625 187.597656 37.257812 187.324219 C 45.125 184.003906 56.53125 170.488281 61.527344 164.171875 " fill-opacity="1" fill-rule="nonzero"/><path fill="#ffffff" d="M 45.648438 157.804688 C 45.796875 157.480469 46.796875 156.089844 47.160156 156.296875 C 48.011719 156.78125 49.039062 156.996094 49.660156 157.835938 C 50.0625 158.375 49.847656 159.226562 49.183594 159.542969 C 48.59375 159.820312 47.925781 159.929688 47.3125 160.105469 C 46.3125 160.175781 45.230469 158.730469 45.648438 157.804688 Z M 43.679688 161.019531 C 44.875 161.132812 45.691406 162.410156 47.21875 162.042969 C 49.070312 162.289062 50.390625 161.167969 51.46875 159.609375 C 52.507812 158.113281 51.976562 155.578125 50.679688 155.167969 C 47.867188 154.285156 45.960938 153.304688 43.488281 157.183594 C 42.75 158.339844 43.175781 159.488281 43.371094 160.644531 C 43.398438 160.789062 43.566406 161.007812 43.679688 161.019531 " fill-opacity="1" fill-rule="nonzero"/><path fill="#ffffff" d="M 38.03125 151.765625 C 38.90625 151.007812 39.554688 149.984375 40.285156 149.109375 C 39.746094 147.640625 36.867188 151.070312 33.085938 153.898438 C 23.371094 161.175781 21.148438 160.285156 21.898438 162 C 22.585938 163.582031 24.625 161.3125 27.742188 159.675781 C 31.648438 157.628906 34.761719 154.601562 38.03125 151.765625 " fill-opacity="1" fill-rule="nonzero"/><path fill="#ffffff" d="M 49.007812 172.804688 C 49.332031 172.417969 49.699219 172.039062 49.710938 171.496094 C 49.644531 171.21875 49.542969 170.851562 49.246094 171.097656 C 48.664062 171.582031 48 172.007812 47.539062 172.589844 C 44.34375 176.570312 40.9375 178.832031 34.304688 184.144531 C 33.269531 184.972656 34.117188 186.179688 35.144531 185.503906 C 37.585938 183.902344 38.402344 182.984375 41.4375 180.710938 C 44.402344 178.492188 46.660156 175.605469 49.007812 172.804688 " fill-opacity="1" fill-rule="nonzero"/><path fill="#ffffff" d="M 44.105469 170.886719 C 42.859375 171.144531 39.914062 175.710938 33.320312 180.9375 C 32.804688 181.347656 32.058594 181.625 32.308594 182.507812 C 32.992188 184.914062 46.875 170.304688 44.105469 170.886719 " fill-opacity="1" fill-rule="nonzero"/><path fill="#ffffff" d="M 89.523438 129.039062 C 89.089844 129.433594 88.742188 129.925781 88.390625 130.398438 C 88.320312 130.496094 88.316406 131.410156 89.550781 130.367188 C 96.589844 124.417969 95.738281 125.550781 96.832031 124.359375 C 100.25 120.632812 99.585938 122.21875 100.417969 120.785156 C 99.949219 120.367188 99.746094 119.9375 98.867188 120.390625 C 96.007812 121.878906 96.804688 122.347656 89.523438 129.039062 " fill-opacity="1" fill-rule="nonzero"/><path fill="#ffffff" d="M 87.355469 126.183594 C 87.675781 126.542969 88.179688 125.777344 89.925781 124.445312 C 95.457031 120.207031 95.773438 120.273438 95.648438 119.671875 C 95.582031 119.363281 95.375 119.183594 95.117188 119.207031 C 93.359375 119.363281 86.53125 125.261719 87.355469 126.183594 " fill-opacity="1" fill-rule="nonzero"/><path fill="#ffffff" d="M 32.125 159.1875 C 31.199219 159.1875 31.960938 158.6875 24.300781 164.175781 C 23.808594 164.527344 23.953125 165.570312 24.742188 165.585938 C 27.996094 163.707031 29.339844 162.042969 32.066406 159.980469 C 32.292969 159.8125 32.535156 159.191406 32.125 159.1875 " fill-opacity="1" fill-rule="nonzero"/><path fill="#ffffff" d="M 31.664062 163.734375 C 31.164062 163.203125 31.734375 162.777344 26.042969 166.855469 C 25.417969 167.308594 26.253906 168.660156 27.046875 168 C 32.289062 163.621094 31.496094 164.269531 31.664062 163.734375 " fill-opacity="1" fill-rule="nonzero"/><path fill="#ffffff" d="M 34.097656 172.109375 C 33.828125 171.570312 33.542969 171.875 28.574219 174.640625 C 27.796875 175.070312 28.0625 176.269531 28.621094 176.195312 C 29.625 176.054688 34.515625 172.960938 34.097656 172.109375 " fill-opacity="1" fill-rule="nonzero"/><path fill="#ffffff" d="M 35.441406 176.074219 C 35.417969 176 35.417969 175.882812 35.378906 175.863281 C 35.234375 175.800781 35.023438 175.691406 34.933594 175.75 C 34.734375 175.882812 30.683594 178.554688 30.5625 178.796875 C 30.1875 179.542969 30.902344 180.105469 31.371094 179.792969 C 32.605469 178.964844 34.847656 177.453125 35.441406 176.074219 " fill-opacity="1" fill-rule="nonzero"/><path fill="#ffffff" d="M 31.328125 168.535156 C 31.261719 168.488281 31.152344 168.421875 31.109375 168.445312 C 29.675781 169.15625 28.246094 169.863281 26.835938 170.617188 C 26.554688 170.765625 26.613281 172.011719 27.472656 171.6875 C 30.042969 170.71875 31.820312 168.886719 31.328125 168.535156 " fill-opacity="1" fill-rule="nonzero"/><path fill="#ffffff" d="M 84.441406 119.863281 C 85.210938 119.328125 85.953125 118.753906 86.679688 118.167969 C 87.414062 117.582031 86.699219 116.878906 86.339844 116.960938 C 85.195312 117.214844 84.453125 118.066406 83.667969 118.835938 C 82.183594 120.296875 83.109375 120.785156 84.441406 119.863281 " fill-opacity="1" fill-rule="nonzero"/><path fill="#ffffff" d="M 86.601562 122.132812 C 90.449219 119.238281 91.085938 119.019531 90.429688 118.398438 C 90.136719 118.121094 89.800781 118.171875 89.519531 118.375 C 85.097656 121.558594 86.339844 122.328125 86.601562 122.132812 " fill-opacity="1" fill-rule="nonzero"/><path fill="#ffffff" d="M 80.058594 118.726562 C 80.855469 118.785156 82.644531 117.320312 83.378906 116.527344 C 83.828125 116.039062 82.976562 115.507812 82.644531 115.664062 C 81.472656 116.21875 78.914062 118.136719 80.058594 118.726562 " fill-opacity="1" fill-rule="nonzero"/><path fill="#ffffff" d="M 90.871094 197.097656 C 91.179688 196.832031 91.472656 196.484375 91.480469 196.019531 C 91.347656 195.925781 91.210938 195.753906 91.097656 195.769531 C 90.492188 195.835938 90 196.152344 89.53125 196.535156 C 82.742188 202.101562 82.546875 205.292969 77.03125 209.597656 C 75.558594 210.738281 74.542969 211.21875 75.054688 211.90625 C 75.5625 212.585938 76.398438 212.203125 77.074219 211.675781 C 82.820312 207.171875 80.933594 208.039062 86.40625 202 C 87.886719 200.359375 89.1875 198.554688 90.871094 197.097656 " fill-opacity="1" fill-rule="nonzero"/><path fill="#ffffff" d="M 97.644531 193.324219 C 97.183594 193.011719 94.578125 195.121094 92.335938 198.121094 C 90.503906 200.566406 88.714844 203.03125 86.363281 205.0625 C 85.089844 206.160156 84.113281 207.597656 82.722656 208.609375 C 81.953125 209.171875 82.410156 211.238281 85.527344 208.113281 C 87.167969 206.46875 90.128906 203.738281 90.765625 202.914062 C 98.636719 192.695312 97.691406 193.839844 97.644531 193.324219 " fill-opacity="1" fill-rule="nonzero"/><path fill="#ffffff" d="M 99.058594 196.515625 C 97.726562 197.039062 95.402344 199.890625 91.230469 204.71875 C 90.417969 205.660156 91.191406 206.910156 92.40625 205.492188 C 97.425781 199.601562 98.113281 198.792969 99.082031 197.503906 C 99.636719 196.765625 99.101562 196.496094 99.058594 196.515625 " fill-opacity="1" fill-rule="nonzero"/><path fill="#ffffff" d="M 162.65625 135.675781 C 161.5 135.699219 157.777344 139.304688 155.894531 143.65625 C 155.710938 144.078125 156 144.480469 156.058594 144.609375 C 157.613281 144.292969 158.0625 141.210938 162.652344 137.023438 C 163.40625 136.339844 163.128906 135.667969 162.65625 135.675781 " fill-opacity="1" fill-rule="nonzero"/><path fill="#ffffff" d="M 153.050781 131.625 C 152.351562 130.324219 146.632812 134.460938 146.320312 136.667969 C 146.246094 137.171875 147.117188 137.285156 147.464844 136.898438 C 151.605469 132.292969 153.476562 132.429688 153.050781 131.625 " fill-opacity="1" fill-rule="nonzero"/><path fill="#ffffff" d="M 155.703125 133.226562 C 155.601562 133.09375 155.527344 132.882812 155.402344 132.851562 C 155.179688 132.796875 154.863281 132.753906 154.699219 132.867188 C 150.800781 135.617188 151.585938 137.558594 152.324219 136.917969 C 153.480469 135.914062 154.664062 134.933594 155.601562 133.703125 C 155.691406 133.585938 155.671875 133.386719 155.703125 133.226562 " fill-opacity="1" fill-rule="nonzero"/><path fill="#ffffff" d="M 158.386719 135.230469 C 158.507812 135.066406 158.078125 134.320312 157.59375 134.652344 C 156.464844 135.421875 155.652344 136.449219 155.21875 137.75 C 155.1875 137.835938 155.367188 137.992188 155.449219 138.117188 C 156.171875 138.171875 157.960938 135.804688 158.386719 135.230469 " fill-opacity="1" fill-rule="nonzero"/><path fill="#ffffff" d="M 103.890625 196.066406 C 103.410156 195.824219 103.015625 196.210938 100.730469 198.246094 C 100.625 198.335938 100.601562 198.542969 100.566406 198.699219 C 100.496094 199.019531 100.730469 199.128906 101.039062 199.277344 C 101.207031 199.21875 101.488281 199.195312 101.644531 199.042969 C 103.738281 196.996094 104.453125 196.347656 103.890625 196.066406 " fill-opacity="1" fill-rule="nonzero"/><path fill="#ffffff" d="M 162.371094 139.574219 C 162.136719 140.078125 162.863281 140.121094 162.964844 140.046875 C 165.667969 138.070312 165.195312 138.320312 165.34375 137.878906 C 165.023438 137.050781 163.28125 137.640625 162.371094 139.574219 " fill-opacity="1" fill-rule="nonzero"/><path fill="#ffffff" d="M 82.871094 85.867188 C 84.066406 86.351562 85.46875 85.859375 90.203125 87.945312 C 93.742188 89.5 96.859375 88.824219 104.992188 91.90625 C 109.777344 93.71875 114.671875 95.230469 119.324219 97.386719 C 119.535156 97.488281 119.808594 97.460938 120.40625 97.53125 C 118.707031 95.582031 118.429688 95.285156 116.855469 94.679688 C 92.804688 85.40625 95.40625 88.878906 89.824219 86.273438 C 88.078125 85.460938 84.660156 84.324219 82.933594 85.261719 C 82.808594 85.332031 82.632812 85.777344 82.871094 85.867188 " fill-opacity="1" fill-rule="nonzero"/><path fill="#ffffff" d="M 113.824219 111.683594 C 115.082031 112.214844 116.296875 112.480469 117.574219 112.640625 C 136.015625 114.941406 142.4375 119.253906 142.46875 117.40625 C 142.484375 116.625 141.296875 116.25 140.542969 116.039062 C 129.21875 112.816406 126.863281 111.855469 115.082031 111.027344 C 114.664062 110.996094 114.226562 110.992188 113.824219 111.683594 " fill-opacity="1" fill-rule="nonzero"/><path fill="#ffffff" d="M 131.769531 109.363281 C 130.253906 108.371094 128.464844 108.113281 126.789062 107.535156 C 126.140625 107.308594 125.488281 107.183594 124.496094 107.527344 C 126.457031 108.417969 128.136719 109.179688 129.816406 109.933594 C 131.9375 110.882812 132.34375 109.738281 131.769531 109.363281 " fill-opacity="1" fill-rule="nonzero"/><path fill="#ffffff" d="M 95.765625 108.914062 C 95.414062 108.964844 95.167969 108.996094 94.925781 109.042969 C 94.394531 109.132812 94.839844 109.726562 94.96875 109.75 C 96.332031 110.050781 98.902344 110.738281 98.613281 109.824219 C 98.425781 109.21875 97.910156 109.253906 95.765625 108.914062 " fill-opacity="1" fill-rule="nonzero"/><path fill="#ffffff" d="M 29.039062 127.042969 C 28.695312 126.097656 30.273438 126.230469 30.898438 125.363281 C 31.519531 124.496094 32.144531 124.535156 33.027344 124.859375 C 34.785156 125.511719 33.558594 125.972656 33.902344 126.738281 C 34.175781 127.347656 34.589844 127.941406 34.054688 128.609375 C 33.457031 129.359375 32.25 129.96875 31.4375 129.941406 C 30.464844 129.914062 29.726562 129.316406 28.921875 128.886719 C 28.261719 128.535156 29.324219 127.824219 29.039062 127.042969 Z M 30.980469 131.875 C 34.253906 131.148438 35.738281 130.460938 36.671875 127.207031 C 36.929688 126.300781 36.777344 125.328125 36.425781 124.457031 C 36.113281 123.664062 35.328125 123.46875 34.574219 123.25 C 34.171875 123.136719 33.820312 122.875 33.429688 122.710938 C 31.753906 122.011719 29.21875 122.605469 28.140625 124.089844 C 26.679688 126.101562 25.921875 125.648438 25.933594 127.308594 C 26.109375 128.382812 25.953125 129.542969 26.871094 130.394531 C 28.039062 131.480469 29.304688 132.25 30.980469 131.875 " fill-opacity="1" fill-rule="nonzero"/><path fill="#ffffff" d="M 18.34375 152.386719 C 22.46875 150.574219 29.648438 147.238281 33.113281 144.34375 C 35.773438 142.113281 38.566406 140.039062 40.707031 137.214844 C 33.878906 141.101562 28.308594 146.96875 17.777344 150.96875 C 16.277344 151.539062 16.671875 153.121094 18.34375 152.386719 " fill-opacity="1" fill-rule="nonzero"/><path fill="#ffffff" d="M 20.429688 134.800781 C 14.644531 137.210938 15.191406 136.328125 11.578125 137.121094 C 10.574219 137.339844 10.511719 138.800781 11.65625 138.765625 C 18.101562 138.574219 19.648438 136.894531 23.421875 134.222656 C 22.527344 134.132812 22.671875 133.863281 20.429688 134.800781 " fill-opacity="1" fill-rule="nonzero"/><path fill="#ffffff" d="M 65.257812 118.355469 C 65.480469 118.691406 66.542969 118.664062 68.117188 117.265625 C 74.71875 111.378906 74.109375 113.367188 75.328125 111.734375 C 75.136719 111.527344 75 111.292969 74.800781 111.179688 C 73.1875 110.269531 64.734375 117.554688 65.257812 118.355469 " fill-opacity="1" fill-rule="nonzero"/><path fill="#ffffff" d="M 19.402344 121.710938 C 19.480469 121.585938 19.460938 121.113281 19.195312 121.113281 C 18.691406 121.113281 18.167969 121.050781 17.683594 121.160156 C 11.984375 122.472656 8.777344 121.511719 8.820312 123.105469 C 8.851562 124.300781 10.390625 123.871094 11.925781 123.804688 C 13.789062 123.722656 18.457031 123.195312 19.402344 121.710938 " fill-opacity="1" fill-rule="nonzero"/><path fill="#ffffff" d="M 25.183594 143.417969 C 24.847656 143.132812 24.523438 143.28125 24.210938 143.402344 C 22.113281 144.195312 16.433594 146.910156 14.820312 148.496094 C 14.589844 148.722656 14.671875 149.6875 15.4375 149.273438 C 25.117188 143.996094 24.90625 144.199219 25.183594 143.417969 " fill-opacity="1" fill-rule="nonzero"/><path fill="#ffffff" d="M 20.109375 138.875 C 19.789062 138.675781 19.453125 138.710938 19.128906 138.828125 C 13.488281 140.851562 13.324219 140.902344 12.480469 141.476562 C 11.757812 141.96875 12.132812 143.261719 13.121094 142.796875 C 19.765625 139.628906 20.046875 139.617188 20.109375 138.875 " fill-opacity="1" fill-rule="nonzero"/><path fill="#ffffff" d="M 13.257812 130.757812 C 15.046875 130.902344 18.6875 128.167969 11.066406 129.085938 C 10.726562 129.128906 10.335938 129.8125 10.46875 130.09375 C 10.914062 131.042969 11.367188 130.605469 13.257812 130.757812 " fill-opacity="1" fill-rule="nonzero"/><path fill="#ffffff" d="M 21.300781 141.855469 C 21.222656 141.746094 20.980469 141.652344 20.867188 141.699219 C 13.761719 144.714844 14.222656 144.496094 14.074219 144.9375 C 13.886719 145.507812 14.203125 145.519531 14.5 145.707031 C 15.328125 145.382812 21.835938 142.566406 21.300781 141.855469 " fill-opacity="1" fill-rule="nonzero"/><path fill="#ffffff" d="M 66.714844 113.003906 C 66.867188 113.617188 70.035156 111.804688 71.703125 110.492188 C 72.328125 110.003906 71.636719 109.183594 71.105469 109.417969 C 69.476562 110.121094 68.035156 111.121094 66.746094 112.332031 C 66.628906 112.445312 66.664062 112.789062 66.714844 113.003906 " fill-opacity="1" fill-rule="nonzero"/><path fill="#ffffff" d="M 15.558594 126.191406 C 15.667969 126.121094 15.710938 125.921875 15.742188 125.773438 C 15.820312 125.402344 15.476562 125.4375 14.691406 125.335938 C 10.5 125.871094 10.183594 125.730469 10.207031 126.628906 C 10.25 128.285156 14.105469 127.160156 15.558594 126.191406 " fill-opacity="1" fill-rule="nonzero"/><path fill="#ffffff" d="M 16.546875 133.28125 C 16.589844 133.261719 16.574219 132.914062 16.5 132.875 C 15.925781 132.546875 16.203125 132.574219 11.476562 133.136719 C 11.269531 133.160156 10.226562 133.914062 11.4375 134.574219 C 11.574219 134.644531 11.769531 134.617188 11.667969 134.609375 C 13.621094 134.695312 15.078125 133.957031 16.546875 133.28125 " fill-opacity="1" fill-rule="nonzero"/><path fill="#ffffff" d="M 65.964844 107.960938 C 65.808594 108.203125 66.078125 108.3125 66.335938 108.503906 C 67.289062 108.21875 68.257812 107.90625 68.980469 107.132812 C 69.109375 106.996094 69.148438 106.609375 69.050781 106.46875 C 68.480469 105.695312 66.613281 106.976562 65.964844 107.960938 " fill-opacity="1" fill-rule="nonzero"/><path fill="#ffffff" d="M 64.90625 104.132812 C 65.617188 103.949219 66.347656 103.796875 66.890625 103.261719 C 66.976562 103.167969 66.960938 102.972656 66.984375 102.84375 C 66.648438 101.773438 65.117188 102.597656 64.683594 103.796875 C 64.65625 103.878906 64.859375 104.144531 64.90625 104.132812 " fill-opacity="1" fill-rule="nonzero"/><path fill="#ffffff" d="M 87.90625 278.164062 C 83.503906 285.34375 83.199219 285.714844 82.875 286.421875 C 82.554688 287.121094 83.519531 287.816406 84.089844 287.191406 C 86.414062 284.601562 92.253906 274.324219 93.578125 268.277344 C 92.292969 266.21875 92.667969 270.414062 87.90625 278.164062 " fill-opacity="1" fill-rule="nonzero"/><path fill="#ffffff" d="M 86.175781 273.320312 C 84.640625 274.988281 81.050781 281.628906 80.078125 283.363281 C 79.921875 283.644531 79.882812 284.023438 79.902344 284.351562 C 79.914062 284.558594 80.136719 284.753906 80.246094 284.933594 C 80.570312 284.902344 80.847656 285.113281 81.410156 284.089844 C 86.597656 274.621094 86.484375 274.777344 86.917969 273.710938 C 87.070312 273.335938 86.578125 272.875 86.175781 273.320312 " fill-opacity="1" fill-rule="nonzero"/><path fill="#ffffff" d="M 113.449219 227.507812 C 114.742188 225.816406 115.871094 224.015625 116.773438 222.085938 C 118.460938 218.472656 119.691406 218.683594 119.1875 217.53125 C 118.824219 216.699219 117.21875 218.65625 116.714844 219.585938 C 112.019531 228.316406 112.9375 226.585938 112.371094 228.144531 C 113.125 228.125 113.25 227.769531 113.449219 227.507812 " fill-opacity="1" fill-rule="nonzero"/><path fill="#ffffff" d="M 82.246094 273.855469 C 82.109375 273.828125 81.890625 273.921875 81.800781 274.035156 C 77.339844 279.832031 77.464844 279.683594 77.433594 279.949219 C 77.347656 280.757812 78.164062 281.371094 78.667969 280.707031 C 82.476562 275.691406 81.582031 276.71875 82.570312 274.339844 C 82.410156 274.089844 82.34375 273.871094 82.246094 273.855469 " fill-opacity="1" fill-rule="nonzero"/><path fill="#ffffff" d="M 79.101562 270.660156 C 74.875 274.515625 75.050781 274.28125 74.828125 274.808594 C 74.539062 275.492188 75.179688 276.300781 75.886719 275.800781 C 77.457031 274.695312 78.398438 273.109375 79.210938 271.429688 C 79.316406 271.199219 79.367188 270.949219 79.101562 270.660156 " fill-opacity="1" fill-rule="nonzero"/><path fill="#ffffff" d="M 76.027344 267.015625 C 75.878906 266.960938 75.660156 266.839844 75.578125 266.898438 C 74.269531 267.808594 73.078125 268.859375 71.964844 270.011719 C 71.144531 270.863281 72.625 273.25 76.128906 267.242188 C 76.085938 267.136719 76.074219 267.039062 76.027344 267.015625 " fill-opacity="1" fill-rule="nonzero"/><path fill="#ffffff" d="M 114.046875 219.347656 C 114.054688 219.335938 114.050781 219.332031 114.046875 219.347656 " fill-opacity="1" fill-rule="nonzero"/><path fill="#ffffff" d="M 110.039062 225.703125 C 110.191406 225.667969 110.402344 225.640625 110.484375 225.53125 C 111.347656 224.40625 113.867188 220.894531 114.023438 219.476562 C 114.035156 219.402344 114.042969 219.363281 114.046875 219.347656 C 114.035156 219.371094 113.980469 219.4375 113.847656 219.308594 C 113.636719 219.125 113.199219 219.230469 113.011719 219.5625 C 109.414062 226.011719 109.835938 225.257812 109.871094 225.523438 C 109.925781 225.585938 109.996094 225.710938 110.039062 225.703125 " fill-opacity="1" fill-rule="nonzero"/><path fill="#ffffff" d="M 72.664062 262.523438 C 72.203125 262.152344 70.199219 263.417969 69.46875 264.214844 C 68.296875 265.507812 69.5625 266.417969 70.050781 265.910156 C 72.722656 263.15625 73.097656 262.875 72.664062 262.523438 " fill-opacity="1" fill-rule="nonzero"/><path fill="#ffffff" d="M 107.664062 221.769531 C 106.550781 221.46875 105.796875 223.546875 105.695312 224.800781 C 106.816406 223.992188 108.53125 222 107.664062 221.769531 " fill-opacity="1" fill-rule="nonzero"/><path fill="#ffffff" d="M 122.246094 195.421875 C 122.320312 195.394531 122.859375 194.96875 122.613281 194.601562 C 122.183594 193.964844 120.558594 194.785156 120.234375 194.917969 C 115.726562 196.757812 111.734375 201.382812 100.488281 207.210938 C 98.898438 208.039062 97.359375 208.964844 95.832031 209.898438 C 95.0625 210.371094 94.21875 210.800781 94.007812 211.90625 C 96.992188 210.261719 99.917969 208.492188 102.972656 206.996094 C 109.714844 203.695312 117.765625 197.136719 122.246094 195.421875 " fill-opacity="1" fill-rule="nonzero"/><path fill="#ffffff" d="M 73.691406 220.519531 C 76.117188 219.816406 82.878906 220.839844 90.324219 218.621094 C 91.105469 218.390625 92.046875 218.390625 92.449219 217.457031 C 91.703125 216.628906 91.21875 217.375 89.710938 217.632812 C 78.601562 219.511719 72.742188 218.40625 72.9375 220.066406 C 72.992188 220.519531 73.402344 220.605469 73.691406 220.519531 " fill-opacity="1" fill-rule="nonzero"/><path fill="#ffffff" d="M 80.503906 217.421875 C 81.675781 217.425781 82.792969 217.105469 83.902344 216.765625 C 84 216.734375 84.09375 216.480469 84.070312 216.351562 C 84.003906 215.988281 83.371094 216.039062 82.757812 216 C 81.925781 216.09375 81.046875 215.914062 80.335938 216.484375 C 80.121094 216.664062 80.019531 217.417969 80.503906 217.421875 " fill-opacity="1" fill-rule="nonzero"/><path fill="#ffffff" d="M 22.738281 95.375 C 23.042969 94.632812 23.558594 93.90625 24.320312 93.457031 C 24.917969 93.101562 26.476562 93.417969 27.117188 94.03125 C 28.089844 94.96875 27.261719 97.710938 24.9375 97.6875 C 24.207031 97.679688 24.078125 97.40625 23.824219 96.878906 C 23.546875 96.296875 22.410156 96.1875 22.738281 95.375 Z M 24.035156 100.550781 C 24.765625 100.761719 26.929688 99.8125 27.410156 99.566406 C 29.910156 98.253906 28.996094 97.777344 30.3125 96.191406 C 31.207031 95.113281 30.769531 93.933594 30.609375 92.785156 C 30.578125 92.578125 30.347656 92.316406 30.144531 92.226562 C 27.175781 90.886719 29.59375 91.8125 25.523438 91.066406 C 23.691406 90.734375 21.15625 91.007812 20.394531 92.855469 C 19.460938 95.117188 19.148438 93.367188 18.8125 96.457031 C 18.824219 97.027344 18.882812 97.128906 19.179688 97.636719 C 20.265625 99.5 22.164062 100.011719 24.035156 100.550781 " fill-opacity="1" fill-rule="nonzero"/><path fill="#ffffff" d="M 34.191406 108.75 C 35.871094 108.125 37.519531 107.429688 39.078125 106.535156 C 43.460938 104.035156 41.921875 105.304688 46.554688 102.628906 C 56.113281 97.109375 60.128906 96.871094 60.6875 94.824219 C 59.460938 94.242188 53.769531 97.132812 49.179688 99.234375 C 46.167969 100.613281 46.648438 101.121094 42.355469 103.246094 C 34.074219 107.34375 32.917969 107.847656 33.507812 108.578125 C 33.625 108.730469 34 108.820312 34.191406 108.75 " fill-opacity="1" fill-rule="nonzero"/><path fill="#ffffff" d="M 9.742188 116.101562 C 15.609375 116.128906 16.6875 114.667969 19.605469 114.148438 C 21.300781 113.84375 22.824219 113.050781 24.441406 112.539062 C 25.460938 112.214844 26.210938 111.285156 25.988281 110.785156 C 25.398438 109.480469 17.082031 114.109375 9.851562 114.46875 C 7.730469 114.574219 6.722656 114.589844 6.761719 115.488281 C 6.808594 116.613281 8.328125 116.207031 9.742188 116.101562 " fill-opacity="1" fill-rule="nonzero"/><path fill="#ffffff" d="M 18.683594 109.609375 C 19.515625 109.246094 20.214844 108.566406 20.964844 108.019531 C 21.234375 107.820312 21.503906 107.539062 21.292969 107.195312 C 20.699219 106.25 13.785156 110.777344 7.007812 111.125 C 5.398438 111.210938 4.222656 115.882812 18.683594 109.609375 " fill-opacity="1" fill-rule="nonzero"/><path fill="#ffffff" d="M 8.242188 100.132812 C 13.089844 95.875 12.902344 96.0625 14.210938 94.632812 C 14.28125 94.550781 14.21875 94.058594 13.960938 94.101562 C 11.214844 94.558594 6.929688 98.777344 6.71875 100.007812 C 6.65625 100.378906 7.191406 101.054688 8.242188 100.132812 " fill-opacity="1" fill-rule="nonzero"/><path fill="#ffffff" d="M 11.347656 106.890625 C 11.628906 106.664062 11.792969 106.320312 11.589844 106.015625 C 10.949219 105.027344 6.695312 107.777344 5.773438 108.570312 C 5.011719 109.230469 5.710938 109.808594 5.78125 109.894531 C 7.199219 109.5 8.050781 108.511719 10.3125 107.628906 C 10.695312 107.480469 11.015625 107.15625 11.347656 106.890625 " fill-opacity="1" fill-rule="nonzero"/><path fill="#ffffff" d="M 34.445312 87.378906 C 35.347656 87.1875 38.78125 86.621094 39.015625 85.71875 C 39.195312 84.695312 34.621094 85.414062 34.09375 86.652344 C 33.828125 87.28125 34.359375 87.398438 34.445312 87.378906 " fill-opacity="1" fill-rule="nonzero"/><path fill="#ffffff" d="M 4.046875 106.746094 C 4.011719 107.019531 4.144531 107.21875 4.398438 107.335938 C 4.5625 107.316406 4.773438 107.363281 4.882812 107.277344 C 10.339844 102.84375 4.5625 102.457031 4.046875 106.746094 " fill-opacity="1" fill-rule="nonzero"/><path fill="#ffffff" d="M 75.984375 247.089844 C 74.992188 247.613281 71.886719 250.988281 71.238281 251.695312 C 67.019531 256.308594 64.050781 255.546875 64.320312 257.230469 C 64.339844 257.34375 64.574219 257.421875 64.695312 257.5 C 68.359375 257.5 73.375 251.289062 75.800781 248.496094 C 76.800781 247.34375 76.011719 247.074219 75.984375 247.089844 " fill-opacity="1" fill-rule="nonzero"/><path fill="#ffffff" d="M 65.125 254.007812 C 67.234375 252.3125 69.160156 250.449219 70.539062 248.082031 C 70.570312 248.027344 70.527344 247.925781 70.472656 247.449219 C 64.109375 252.984375 64.582031 252.480469 64.25 253.234375 C 63.980469 253.851562 64.8125 254.253906 65.125 254.007812 " fill-opacity="1" fill-rule="nonzero"/><path fill="#ffffff" d="M 64.761719 247.945312 C 71.289062 242.777344 69 243.101562 68.871094 243.210938 C 65.015625 246.5625 63.722656 246.550781 63.703125 247.152344 C 63.671875 248.105469 64.410156 248.222656 64.761719 247.945312 " fill-opacity="1" fill-rule="nonzero"/><path fill="#ffffff" d="M 67.269531 239.675781 C 67.207031 239.636719 67.085938 239.601562 67.042969 239.632812 C 63.761719 242.050781 62.265625 241.808594 62.6875 242.976562 C 63.121094 244.164062 68.074219 240.160156 67.269531 239.675781 " fill-opacity="1" fill-rule="nonzero"/><path fill="#ffffff" d="M 66.460938 236.390625 C 66.335938 236.023438 66.121094 236.128906 63.429688 237.859375 C 62.703125 238.328125 63.136719 238.894531 63.210938 239.121094 C 64.109375 239.121094 66.839844 237.46875 66.460938 236.390625 " fill-opacity="1" fill-rule="nonzero"/><path fill="#ffffff" d="M 88.882812 229.246094 C 88.96875 229.339844 89.222656 229.421875 89.308594 229.363281 C 92.710938 227.011719 92.847656 226.992188 92.628906 226.351562 C 92.328125 225.46875 89.527344 228.234375 88.921875 228.835938 C 88.84375 228.917969 88.820312 229.171875 88.882812 229.246094 " fill-opacity="1" fill-rule="nonzero"/><path fill="#ffffff" d="M 66.515625 233.085938 C 65.449219 232.929688 64.726562 233.402344 64.105469 234.113281 C 64.023438 234.207031 64.03125 234.449219 64.089844 234.578125 C 64.449219 235.417969 66.183594 234.15625 66.515625 233.085938 " fill-opacity="1" fill-rule="nonzero"/><path fill="#ffffff" d="M 88.761719 226.519531 C 89.425781 226.390625 90.144531 226.03125 90.046875 225.363281 C 89.480469 224.871094 88.5625 225.527344 88.488281 226.230469 C 88.480469 226.324219 88.691406 226.53125 88.761719 226.519531 " fill-opacity="1" fill-rule="nonzero"/><path fill="#ffffff" d="M 173.355469 140.941406 C 173.164062 140.800781 172.875 140.632812 172.683594 140.6875 C 170.917969 141.160156 169.761719 142.300781 169.15625 144.015625 C 169.050781 144.304688 169.535156 144.738281 169.722656 144.578125 C 173.117188 141.632812 173.710938 141.191406 173.355469 140.941406 " fill-opacity="1" fill-rule="nonzero"/><path fill="#ffffff" d="M 175.523438 142.296875 C 174.171875 142.550781 173.265625 143.378906 172.75 144.636719 C 172.648438 144.890625 172.816406 145.105469 173.066406 145.277344 C 173.789062 145.152344 173.246094 145.675781 176.140625 143.230469 C 176.617188 142.828125 176.039062 142.203125 175.523438 142.296875 " fill-opacity="1" fill-rule="nonzero"/><path fill="#ffffff" d="M 179.976562 144.78125 C 178.640625 144.492188 177.117188 145.640625 176.914062 147.101562 C 176.863281 147.453125 177.304688 147.738281 177.558594 147.558594 C 180.722656 145.261719 180.175781 145.605469 180.289062 145.113281 C 180.183594 144.996094 180.097656 144.808594 179.976562 144.78125 " fill-opacity="1" fill-rule="nonzero"/><path fill="#ffffff" d="M 180.523438 148.457031 C 180.632812 148.945312 181.363281 148.660156 181.683594 148.144531 C 182.25 147.230469 180.179688 146.859375 180.523438 148.457031 " fill-opacity="1" fill-rule="nonzero"/></svg>